<?xml version="1.0" encoding="utf-8"?>
<!-- Generator: Adobe Illustrator 26.0.1, SVG Export Plug-In . SVG Version: 6.00 Build 0)  -->
<svg version="1.1" id="Layer_1" xmlns="http://www.w3.org/2000/svg" xmlns:xlink="http://www.w3.org/1999/xlink" x="0px" y="0px"
	 viewBox="0 0 1000 1133" style="enable-background:new 0 0 1000 1133;" xml:space="preserve">
<style type="text/css">
	.st0{fill:url(#SVGID_1_);}
	.st1{fill:url(#SVGID_00000071518766334298361990000014263485348759302318_);}
	.st2{fill:url(#SVGID_00000096048095023090345120000006893460323143218816_);}
	.st3{fill:url(#SVGID_00000139288826383806322670000007700246505502277001_);}
	.st4{fill:url(#SVGID_00000160168870525562737460000004687686664948902301_);}
	.st5{fill:#FFFFFF;}
	.st6{fill:#BEE64E;}
	.st7{fill:#B3F5A4;}
	.st8{fill:url(#SVGID_00000011022298503304999650000005005220164860861581_);}
	.st9{fill:url(#SVGID_00000021838826760122514300000017715708002316988345_);}
	.st10{fill:url(#SVGID_00000052810978504924306330000006945195287666909332_);}
	.st11{fill:url(#SVGID_00000098927450224494800810000015601077405536936884_);}
	.st12{fill:#FF0605;}
	.st13{fill:#FA3306;}
	.st14{fill:url(#SVGID_00000142150494111072657660000008574037243544471222_);}
	.st15{fill:#FF1400;}
	.st16{fill:#FF1602;}
	.st17{fill:url(#SVGID_00000082353976373201030420000001024706265938637733_);}
	.st18{fill:url(#SVGID_00000059305730318056549980000003968425812326764988_);}
	.st19{fill:url(#SVGID_00000103951549447053650010000011438840076980647098_);}
	.st20{fill:url(#SVGID_00000149352618532827174110000005090431161719592124_);}
	.st21{fill:url(#SVGID_00000037687622054719726400000002549996462914553000_);}
	.st22{fill:#FF1901;}
	.st23{fill:#FFFFFE;}
	.st24{fill:url(#SVGID_00000137106686308857995330000005121540572109040530_);}
	.st25{fill:url(#SVGID_00000164477089518083028050000007075103861086137243_);}
	.st26{fill:url(#SVGID_00000167368272821794147950000009186443705911415690_);}
	.st27{fill:url(#SVGID_00000040533584645925917140000002088332691538395552_);}
	.st28{fill:url(#SVGID_00000054266476662266638780000005664495674155689130_);}
	.st29{fill:url(#SVGID_00000116919118455002544800000007851976257655105410_);}
	.st30{fill:#7E400D;}
	.st31{fill:url(#SVGID_00000165920264623638256560000013715912498286968746_);}
	.st32{fill:url(#SVGID_00000017496545759947017720000011901108070854319764_);}
	.st33{fill:url(#SVGID_00000116237177246739853050000015221061005099494030_);}
	.st34{fill:#FF0E01;}
	.st35{fill:#4395C5;}
	.st36{fill:#010101;}
	.st37{fill:#231F20;}
</style>
<g>
	<path d="M996.51,473.27c3.38,30.72,4.32,62.32,2.76,93.89c-2.74,56.07-13.14,112.14-30.91,166.67
		c-17.77,54.49-42.49,106.15-73.46,153.51c-65.62,100.36-155.28,175.71-259.29,217.93c-45.38,18.39-91.71,27.73-137.75,27.73
		c-112.59,0-222.41-65.09-287.65-125.99C83.59,888.77,1.08,701.28,0.01,529.36c-0.63-102.15,28.01-202.57,82.85-290.39
		C139.02,149.04,218.26,79.86,312,38.95c2.4-1.05,4.77-2.07,7.13-3.07C375.45,12.4,437.24,0,497.85,0
		c123.32,0,243.27,51.62,337.76,145.38c44.21,43.84,80.7,94.59,108.46,150.81C972.22,353.2,989.86,412.75,996.51,473.27z
		 M954.57,565.05c1.43-29.31,0.58-58.6-2.55-87.05C929.05,269.29,748.89,44.06,497.85,44.06c-54.66,0-110.41,11.18-161.22,32.4
		c-2.16,0.89-4.34,1.84-6.52,2.79C158.24,154.28,43.57,335.06,44.77,529.1c1,160.51,78.04,335.55,196.25,445.94
		c58.98,55.07,157.42,113.9,256.84,113.9c40.15,0,80.76-8.22,120.69-24.41C808.71,987.38,943.73,786.67,954.57,565.05z"/>
	<linearGradient id="SVGID_1_" gradientUnits="userSpaceOnUse" x1="198.9417" y1="163.8505" x2="806.3336" y2="941.2767">
		<stop  offset="0" style="stop-color:#FFFA1E"/>
		<stop  offset="7.988989e-03" style="stop-color:#FFF91E"/>
		<stop  offset="0.449" style="stop-color:#FFCF15"/>
		<stop  offset="0.7946" style="stop-color:#FFB510"/>
		<stop  offset="1" style="stop-color:#FFAB0E"/>
	</linearGradient>
	<path class="st0" d="M952.01,478c3.13,28.46,3.99,57.74,2.55,87.05c-10.83,221.62-145.86,422.33-336.01,499.48
		c-39.93,16.2-80.54,24.41-120.69,24.41c-99.43,0-197.87-58.83-256.84-113.9C122.81,864.65,45.77,689.61,44.77,529.1
		c-1.2-194.05,113.47-374.82,285.35-449.86c2.17-0.95,4.36-1.89,6.52-2.79c50.81-21.21,106.56-32.4,161.22-32.4
		C748.89,44.06,929.05,269.29,952.01,478z"/>
	<path d="M713.64,831.04H297.5c-17.34,0-31.4-14.06-31.4-31.4v-18.58c0-17.34,14.06-31.4,31.4-31.4h416.14
		c17.34,0,31.4,14.06,31.4,31.4v18.58C745.04,816.98,730.98,831.04,713.64,831.04z"/>
	<path d="M713.63,521.37h-79.02c-10.29,0-18.64-8.34-18.64-18.64v-65.95c0-10.29,8.34-18.64,18.64-18.64h79.02
		c10.29,0,18.64,8.34,18.64,18.64v65.95C732.27,513.02,723.93,521.37,713.63,521.37z"/>
	<path d="M727.8,339.34l-96.75,0.4c-13.52,0.06-24.43-10.71-24.37-24.05l0.08-18.61c0.06-13.34,11.06-24.19,24.57-24.25l96.75-0.4
		c13.52-0.06,24.43,10.71,24.37,24.05l-0.08,18.61C752.32,328.43,741.32,339.29,727.8,339.34z"/>
	<path d="M295.71,512.71h79.02c10.29,0,18.64-8.34,18.64-18.64v-65.95c0-10.29-8.34-18.64-18.64-18.64h-79.02
		c-10.29,0-18.64,8.34-18.64,18.64v65.95C277.07,504.37,285.42,512.71,295.71,512.71z"/>
	<path d="M242.47,394.98l89.19-74.71c10.31-8.63,11.55-23.85,2.78-34l-7.94-9.19c-8.77-10.14-24.23-11.37-34.54-2.74l-89.19,74.71
		c-10.31,8.63-11.55,23.85-2.78,34l7.94,9.19C216.7,402.38,232.17,403.61,242.47,394.98z"/>
</g>
</svg>
