<?xml version="1.0" encoding="utf-8"?>
<!-- Generator: Adobe Illustrator 26.0.1, SVG Export Plug-In . SVG Version: 6.00 Build 0)  -->
<svg version="1.1" id="Layer_1" xmlns="http://www.w3.org/2000/svg" xmlns:xlink="http://www.w3.org/1999/xlink" x="0px" y="0px"
	 viewBox="0 0 1000 1133" style="enable-background:new 0 0 1000 1133;" xml:space="preserve">
<style type="text/css">
	.st0{fill:url(#SVGID_1_);}
	.st1{fill:url(#SVGID_00000040548671547540735270000006500401116136977086_);}
	.st2{fill:url(#SVGID_00000054225787617649210590000014542464359939687068_);}
	.st3{fill:url(#SVGID_00000059302925018160592500000005124211179128846476_);}
	.st4{fill:url(#SVGID_00000054952583040212198360000003915300136294937487_);}
	.st5{fill:#FFFFFF;}
	.st6{fill:#BEE64E;}
	.st7{fill:#B3F5A4;}
	.st8{fill:url(#SVGID_00000023964191923317037980000004358473006844335793_);}
	.st9{fill:url(#SVGID_00000157301043873307653540000007330655022315051189_);}
	.st10{fill:url(#SVGID_00000018208281768114074230000012623033087284627128_);}
	.st11{fill:url(#SVGID_00000061445077783512503560000009107605380361016479_);}
	.st12{fill:#FF0605;}
	.st13{fill:#FA3306;}
	.st14{fill:url(#SVGID_00000003794442661838071710000014494342752777472697_);}
	.st15{fill:#FF1400;}
	.st16{fill:#FF1602;}
	.st17{fill:url(#SVGID_00000046334594455548066850000002272703729733007033_);}
	.st18{fill:url(#SVGID_00000083789027477912843010000015817747777131968946_);}
	.st19{fill:url(#SVGID_00000082368951906032905840000001933052877257300156_);}
	.st20{fill:url(#SVGID_00000163789784851970182830000002395261420879573403_);}
	.st21{fill:url(#SVGID_00000163776746037773132390000018411266208057566646_);}
	.st22{fill:#FF1901;}
	.st23{fill:#FFFFFE;}
	.st24{fill:url(#SVGID_00000049909004160509678450000011822127419197411516_);}
	.st25{fill:url(#SVGID_00000005264811326048675590000001239597976534386331_);}
	.st26{fill:url(#SVGID_00000027587181331324820030000014622979593664114111_);}
	.st27{fill:url(#SVGID_00000043444551463682308520000002252479728016403874_);}
	.st28{fill:url(#SVGID_00000032633179215829166470000003249925574070609792_);}
	.st29{fill:url(#SVGID_00000116935591114189373990000006594792416096076678_);}
	.st30{fill:#7E400D;}
	.st31{fill:url(#SVGID_00000034811172999447411770000006707659463085851529_);}
	.st32{fill:url(#SVGID_00000131338385152015949000000015612919848375890844_);}
	.st33{fill:url(#SVGID_00000152238030877243184310000014408330628283013005_);}
	.st34{fill:#FF0E01;}
	.st35{fill:#4395C5;}
	.st36{fill:#010101;}
	.st37{fill:#231F20;}
</style>
<g>
	<path d="M991.16,473.43c3.32,30.68,4.24,62.21,2.72,93.74c-2.69,55.95-12.91,111.93-30.37,166.35
		c-17.46,54.4-41.75,105.96-72.17,153.25c-64.48,100.18-152.58,175.39-254.77,217.52c-44.59,18.37-90.11,27.69-135.35,27.69
		c-110.63,0-218.53-64.97-282.63-125.77C94.17,888.19,13.09,701.04,12.04,529.44c-0.62-101.98,27.52-202.2,81.41-289.86
		C148.63,149.8,226.48,80.75,318.59,39.91c2.35-1.05,4.68-2.06,7.01-3.05C380.94,13.4,441.65,1.02,501.2,1.02
		c121.17,0,239.03,51.53,331.87,145.11c43.43,43.77,79.29,94.42,106.57,150.54C967.29,353.58,984.63,413.04,991.16,473.43z
		 M949.95,565.04c1.41-29.24,0.57-58.48-2.51-86.88C924.88,269.84,747.86,45,501.2,45c-53.7,0-108.48,11.18-158.41,32.34
		c-2.12,0.91-4.27,1.84-6.4,2.78C167.52,155.02,54.84,335.48,56.02,529.16C57,689.4,132.7,864.12,248.85,974.3
		C306.8,1029.26,403.52,1088,501.21,1088c39.45,0,79.35-8.2,118.58-24.38C806.63,986.62,939.3,786.26,949.95,565.04z"/>
	<linearGradient id="SVGID_1_" gradientUnits="userSpaceOnUse" x1="204.2388" y1="166.699" x2="807.565" y2="938.9214">
		<stop  offset="0" style="stop-color:#FFFA1E"/>
		<stop  offset="7.988989e-03" style="stop-color:#FFF91E"/>
		<stop  offset="0.449" style="stop-color:#FFCF15"/>
		<stop  offset="0.7946" style="stop-color:#FFB510"/>
		<stop  offset="1" style="stop-color:#FFAB0E"/>
	</linearGradient>
	<path class="st0" d="M947.44,478.16c3.08,28.4,3.92,57.64,2.51,86.88C939.3,786.26,806.63,986.62,619.8,1063.62
		c-39.23,16.18-79.13,24.38-118.58,24.38c-97.69,0-194.42-58.74-252.36-113.69C132.7,864.12,57,689.4,56.02,529.16
		c-1.18-193.68,111.5-374.14,280.37-449.05c2.13-0.94,4.28-1.88,6.4-2.78C392.72,56.18,447.5,45,501.2,45
		C747.86,45,924.88,269.84,947.44,478.16z"/>
	<g>
		<g id="XMLID_00000049919443289163065060000000910323694208664252_">
			<g>
				<path d="M768.69,202.39c127.55,0,231.31,103.76,231.31,231.31C1000,561.23,896.24,665,768.69,665S537.39,561.23,537.39,433.7
					C537.39,306.15,641.15,202.39,768.69,202.39z M943.09,433.7c0-96.17-78.23-174.4-174.4-174.4s-174.4,78.23-174.4,174.4
					c0,96.15,78.23,174.4,174.4,174.4S943.09,529.85,943.09,433.7z"/>
				<circle class="st5" cx="768.69" cy="433.7" r="174.4"/>
				<path d="M231.31,202.39c127.55,0,231.31,103.76,231.31,231.31C462.61,561.23,358.85,665,231.31,665S0,561.23,0,433.7
					C0,306.15,103.76,202.39,231.31,202.39z M405.7,433.7c0-96.17-78.23-174.4-174.4-174.4c-96.15,0-174.4,78.23-174.4,174.4
					c0,96.15,78.24,174.4,174.4,174.4C327.47,608.09,405.7,529.85,405.7,433.7z"/>
				<circle class="st5" cx="231.31" cy="433.7" r="174.4"/>
			</g>
		</g>
	</g>
	<path d="M562.92,879.57h-149.7c-9.73,0-17.62-7.89-17.62-17.62v-43.36c0-9.73,7.89-17.62,17.62-17.62h149.7
		c9.73,0,17.62,7.89,17.62,17.62v43.36C580.54,871.69,572.65,879.57,562.92,879.57z"/>
	<circle cx="756.8" cy="435.48" r="49.78"/>
	<circle cx="219.42" cy="435.48" r="49.78"/>
</g>
</svg>
