<?xml version="1.0" encoding="utf-8"?>
<!-- Generator: Adobe Illustrator 26.0.1, SVG Export Plug-In . SVG Version: 6.00 Build 0)  -->
<svg version="1.1" id="Layer_1" xmlns="http://www.w3.org/2000/svg" xmlns:xlink="http://www.w3.org/1999/xlink" x="0px" y="0px"
	 viewBox="0 0 1000 1133" style="enable-background:new 0 0 1000 1133;" xml:space="preserve">
<style type="text/css">
	.st0{fill:url(#SVGID_1_);}
	.st1{fill:url(#SVGID_00000119097015009308763950000003955794106801063565_);}
	.st2{fill:url(#SVGID_00000013171670819458682000000008281686689612599737_);}
	.st3{fill:url(#SVGID_00000095320960473467373530000005156177129421132730_);}
	.st4{fill:url(#SVGID_00000016794228397939141310000001251109522366574997_);}
	.st5{fill:#FFFFFF;}
	.st6{fill:#BEE64E;}
	.st7{fill:#B3F5A4;}
	.st8{fill:url(#SVGID_00000023997236434170129020000008334885296976451505_);}
	.st9{fill:url(#SVGID_00000158745361063695678690000014877456981001059996_);}
	.st10{fill:url(#SVGID_00000031207432144809565380000005007817262269374853_);}
	.st11{fill:url(#SVGID_00000181078796502233602040000007168152329148770980_);}
	.st12{fill:#FF0605;}
	.st13{fill:#FA3306;}
	.st14{fill:url(#SVGID_00000070834717255729464660000012122488390355594654_);}
	.st15{fill:#FF1400;}
	.st16{fill:#FF1602;}
	.st17{fill:url(#SVGID_00000007412921696938474010000003609154580899743912_);}
	.st18{fill:url(#SVGID_00000132771287887173935040000007650198509753981613_);}
	.st19{fill:url(#SVGID_00000034801541984938335850000016400446785092651401_);}
	.st20{fill:url(#SVGID_00000181069886480277562540000011298219543048015005_);}
	.st21{fill:url(#SVGID_00000138572197063163521150000014859476969696422282_);}
	.st22{fill:#FF1901;}
	.st23{fill:#FFFFFE;}
	.st24{fill:url(#SVGID_00000085965755703810977360000005440381549747713195_);}
	.st25{fill:url(#SVGID_00000016754660729706184690000017439105741956540347_);}
	.st26{fill:url(#SVGID_00000177455930004544322990000016803570600698055592_);}
	.st27{fill:url(#SVGID_00000060728095365911402150000006914145684752049592_);}
	.st28{fill:url(#SVGID_00000039826351859819131430000007023092022202938534_);}
	.st29{fill:url(#SVGID_00000150788009119599853430000003709733098468620432_);}
	.st30{fill:#7E400D;}
	.st31{fill:url(#SVGID_00000105388387147129373520000006763690417120488370_);}
	.st32{fill:url(#SVGID_00000153705125816642285100000001975587486793172389_);}
	.st33{fill:url(#SVGID_00000152973130660841905760000005929093974716297916_);}
	.st34{fill:#FF0E01;}
	.st35{fill:#4395C5;}
	.st36{fill:#010101;}
	.st37{fill:#231F20;}
</style>
<g>
	<path class="st13" d="M824.9,135.79c0,0,58.48-84.03,92.76-115.13c34.28-31.1,55.79-13.23,43.69,73.45s-34.28,171.38-69.24,153.51
		s-90.08-74.77-78.65-93.3C824.9,135.79,824.9,135.79,824.9,135.79z"/>
	<path class="st13" d="M167.65,149.21c0,0-58.48-84.03-92.76-115.13s-55.79-13.23-43.69,73.45s34.28,171.38,69.24,153.51
		c34.95-17.87,90.08-74.77,78.65-93.3S167.65,149.21,167.65,149.21z"/>
	<path d="M996.51,473.26c3.38,30.74,4.32,62.33,2.76,93.91c-2.74,56.06-13.14,112.14-30.91,166.65
		c-17.77,54.5-42.49,106.15-73.46,153.53c-65.62,100.36-155.28,175.71-259.29,217.91c-45.38,18.4-91.71,27.74-137.75,27.74
		c-112.59,0-222.41-65.09-287.65-126C83.59,888.77,1.08,701.28,0.01,529.37C-0.62,427.21,28.02,326.8,82.87,238.98
		C139.02,149.04,218.26,79.87,312,38.95c2.4-1.05,4.77-2.06,7.13-3.06C375.45,12.4,437.24,0,497.85,0
		c123.32,0,243.27,51.62,337.76,145.37c44.21,43.85,80.7,94.59,108.46,150.82C972.22,353.19,989.86,412.76,996.51,473.26z
		 M954.57,565.04c1.43-29.3,0.58-58.58-2.55-87.04C929.05,269.3,748.89,44.06,497.85,44.06c-54.66,0-110.41,11.2-161.22,32.39
		c-2.16,0.91-4.34,1.84-6.52,2.79C158.24,154.28,43.57,335.07,44.77,529.1c1,160.52,78.04,335.56,196.25,445.95
		c58.98,55.06,157.42,113.9,256.84,113.9c40.15,0,80.76-8.22,120.69-24.43C808.71,987.38,943.73,786.66,954.57,565.04z"/>
	<linearGradient id="SVGID_1_" gradientUnits="userSpaceOnUse" x1="205.562" y1="157.832" x2="800.6794" y2="947.5795">
		<stop  offset="0" style="stop-color:#FFFA1E"/>
		<stop  offset="7.988989e-03" style="stop-color:#FFF91E"/>
		<stop  offset="0.449" style="stop-color:#FFCF15"/>
		<stop  offset="0.7946" style="stop-color:#FFB510"/>
		<stop  offset="1" style="stop-color:#FFAB0E"/>
	</linearGradient>
	<path class="st0" d="M952.01,478c3.13,28.46,3.99,57.74,2.55,87.04c-10.83,221.62-145.86,422.34-336.01,499.48
		c-39.93,16.21-80.54,24.43-120.69,24.43c-99.43,0-197.87-58.84-256.84-113.9C122.81,864.65,45.77,689.62,44.77,529.1
		c-1.2-194.03,113.47-374.82,285.35-449.86c2.17-0.95,4.36-1.88,6.52-2.79c50.81-21.2,106.56-32.39,161.22-32.39
		C748.89,44.06,929.05,269.3,952.01,478z"/>
	<g id="XMLID_00000099653193502539817240000002889019241970545827_">
		<g>
			<path d="M801.87,487.31c11.1,31.27,10.08,89.82-32.77,101.73c-42.86,11.91-20.17,34.74-56.97,69.97
				c-36.81,35.23-88.73,6.45-105.37-14.89c-16.64-21.33-2.01-42.67-2.01-42.67c1.74-2.46,5.28-4.39,10.08-5.92
				c27.16-8.68,94.73-4.56,105.87-10.46c13.11-6.95,10.58-87.35,18.15-116.62c0.86-3.29,2.17-6.01,3.86-8.18
				C755.98,443.15,792.04,459.57,801.87,487.31z"/>
			<path class="st15" d="M742.71,460.28c-1.69,2.16-3,4.89-3.86,8.18c-7.57,29.27-5.04,109.68-18.15,116.62
				c-11.14,5.9-78.71,1.78-105.87,10.46c-30.24-21.81-20.58-65.85-20.58-65.85c22.16-3.29,48.11-17.21,79.39-45.85
				c15.93-14.59,28.76-31.64,38.97-49.14C738.82,428.73,742.71,460.28,742.71,460.28z"/>
			<path d="M697.18,330.32c26.21-25.14,51.09-25.8,51.09-5.29c0,14.86-8.82,63.73-35.65,109.66c-10.2,17.49-23.04,34.55-38.97,49.14
				c-31.28,28.64-57.24,42.55-79.39,45.85c-18.79,2.79-34.82-2.07-49.01-12.1c-30.91-21.83,18.15-54.92,18.15-54.92
				C644.75,402.45,670.96,355.48,697.18,330.32z"/>
			<path d="M721.85,846.67c22.18,24.49-10.08,48.97-27.57,15.23c-15.35-29.61-52.95-50.06-61.91-54.62h35.83v-16.77
				c0-5.88-0.9-11.56-2.57-16.9C688.37,799.26,707.22,830.54,721.85,846.67z"/>
			<path d="M668.21,790.51v16.77h-35.83c-1.25-0.63-1.95-0.96-1.95-0.96l-47.06-32.43c0,0,2.34-37.75,26.62-37.75
				c4.83,0,10.52,1.49,17.23,5.07c13.81,7.36,26.64,19.13,38.43,32.41C667.31,778.95,668.21,784.63,668.21,790.51z"/>
			<path d="M632.37,807.28H361.67l47.06-32.42c0,0-2.33-37.75-26.62-37.75v-3.28h227.87v2.31c-24.27,0-26.62,37.75-26.62,37.75
				l47.06,32.43C630.42,806.32,631.12,806.64,632.37,807.28z"/>
			<path d="M627.21,741.21c-6.71-3.58-12.4-5.07-17.23-5.07v-2.31h1.54c25.42,0,46.93,16.73,54.12,39.78
				C653.86,760.33,641.02,748.57,627.21,741.21z"/>
			<path d="M421.27,462.66c0,0,49.08,33.08,18.15,54.92c-14.19,10.03-30.22,14.89-49.01,12.1c-22.16-3.29-48.11-17.21-79.38-45.85
				c-15.94-14.59-28.76-31.64-38.97-49.14c-26.84-45.94-35.65-94.8-35.65-109.66c0-20.51,24.87-19.85,51.09,5.29
				C313.72,355.48,339.95,402.45,421.27,462.66z"/>
			<path d="M408.73,774.86l-47.06,32.42h-31.59v-22.12c0-6.32,1.15-12.39,3.24-17.97c9.86-10.2,20.39-19.05,31.57-25.01
				c6.71-3.58,12.41-5.07,17.23-5.07C406.4,737.11,408.73,774.86,408.73,774.86z"/>
			<path class="st16" d="M390.42,529.68c0,0,9.66,44.03-20.56,65.85h-0.01c-27.17-8.68-94.73-4.56-105.87-10.46
				c-13.1-6.95-10.58-87.35-18.14-116.62c-0.86-3.3-2.17-6.03-3.87-8.19c0.11-0.76,4.24-31.46,30.11-25.57
				c10.2,17.49,23.02,34.55,38.97,49.14C342.3,512.47,368.26,526.39,390.42,529.68z"/>
			<path d="M333.31,767.19c7.28-19.49,26.06-33.35,48.09-33.35h0.71v3.28c-4.82,0-10.52,1.49-17.23,5.07
				C353.7,748.14,343.17,756.99,333.31,767.19z"/>
			<path d="M241.96,460.27c1.7,2.16,3.01,4.89,3.87,8.19c7.56,29.27,5.04,109.68,18.14,116.62c11.14,5.9,78.7,1.78,105.87,10.46
				h0.01c4.8,1.53,8.35,3.46,10.08,5.92c0,0,14.61,21.34-2.01,42.67c-16.64,21.34-68.57,50.12-105.38,14.89
				c-36.79-35.23-14.11-58.06-56.96-69.97c-42.86-11.91-43.86-70.47-32.78-101.73C192.65,459.57,228.68,443.16,241.96,460.27z"/>
			<path d="M330.07,807.28h31.59c0,0-46.38,21.83-63.86,55.59c-17.47,33.74-49.73,9.25-27.55-15.23
				c16.06-17.71,37.23-53.74,63.06-80.46c-2.09,5.58-3.24,11.65-3.24,17.97V807.28z"/>
		</g>
	</g>
</g>
<g>
	<path d="M916.83,275.33l-11.87-7.42l5.94,3.71l-5.94-3.7c0.25-0.4,25.1-40.9,40.45-114.66c14.04-67.49,16.1-111.27,6.1-130.1
		c-1.67-3.15-3.87-4.71-7.14-5.07c-10.47-1.13-28.1,10.28-42.95,27.76c-22.98,27.06-77.1,90.89-77.1,90.89l-10.68-9.05
		c0,0,54.13-63.83,77.11-90.9c18.51-21.8,39.62-34.3,55.13-32.62c7.92,0.86,14.14,5.15,17.99,12.42
		c11.89,22.41,10.38,66.74-4.76,139.52C943.2,232.54,917.9,273.62,916.83,275.33z"/>
</g>
<g>
	<path d="M70.3,274.81c-0.71-0.9-17.4-22.53-28.36-64.72C31.1,168.37,26.87,136.95,22.4,103.67c-4.72-35.15,2.09-59.16,5.75-72.06
		c2.4-8.45,8.49-14.81,16.71-17.44c8.6-2.76,23.17-2.58,43.76,13.88c29.06,23.24,87.11,112.29,89.57,116.06l-11.74,7.63
		c-0.59-0.91-59.27-90.93-86.57-112.76C63.31,25.74,53.5,26.1,49.13,27.5c-3.68,1.18-6.42,4.07-7.51,7.93
		c-3.38,11.92-9.68,34.11-5.34,66.37c4.41,32.84,8.58,63.86,19.21,104.76c10.16,39.11,25.69,59.42,25.84,59.62L70.3,274.81z"/>
</g>
</svg>
