<?xml version="1.0" encoding="utf-8"?>
<!-- Generator: Adobe Illustrator 26.0.1, SVG Export Plug-In . SVG Version: 6.00 Build 0)  -->
<svg version="1.1" id="Layer_1" xmlns="http://www.w3.org/2000/svg" xmlns:xlink="http://www.w3.org/1999/xlink" x="0px" y="0px"
	 viewBox="0 0 1000 1133" style="enable-background:new 0 0 1000 1133;" xml:space="preserve">
<style type="text/css">
	.st0{fill:url(#SVGID_1_);}
	.st1{fill:url(#SVGID_00000183967190271735438700000009429917203093122751_);}
	.st2{fill:url(#SVGID_00000034052293330054855300000007580938103117517450_);}
	.st3{fill:url(#SVGID_00000183223505154582342450000001143279475505423020_);}
	.st4{fill:url(#SVGID_00000026877115248135730270000007573608111514788498_);}
	.st5{fill:#FFFFFF;}
	.st6{fill:#BEE64E;}
	.st7{fill:#B3F5A4;}
	.st8{fill:url(#SVGID_00000043428956863638674000000003284283968365881229_);}
	.st9{fill:url(#SVGID_00000141451632520331638780000009114398411861248920_);}
	.st10{fill:url(#SVGID_00000159436629756686260020000007821652818962715036_);}
	.st11{fill:url(#SVGID_00000066499637107596371500000010326548769258903701_);}
	.st12{fill:#FF0605;}
	.st13{fill:#FA3306;}
	.st14{fill:url(#SVGID_00000049214558058111770480000016176595011453996964_);}
	.st15{fill:#FF1400;}
	.st16{fill:#FF1602;}
	.st17{fill:url(#SVGID_00000003063107166884349150000003295343376323320741_);}
	.st18{fill:url(#SVGID_00000017500502727661071440000018373071071359908758_);}
	.st19{fill:url(#SVGID_00000001641805599500963130000001093404870938965158_);}
	.st20{fill:url(#SVGID_00000145044074775202304240000006215045351653380534_);}
	.st21{fill:url(#SVGID_00000116225774941667522360000000781721481010570908_);}
	.st22{fill:#FF1901;}
	.st23{fill:#FFFFFE;}
	.st24{fill:url(#SVGID_00000040568645948721424710000008417692565956231597_);}
	.st25{fill:url(#SVGID_00000085241724761719781000000001255074491363512203_);}
	.st26{fill:url(#SVGID_00000134971552053482741920000008219492764132507575_);}
	.st27{fill:url(#SVGID_00000086672883432452019130000005078691024810824601_);}
	.st28{fill:url(#SVGID_00000072247242663704498890000016461093691645231807_);}
	.st29{fill:url(#SVGID_00000088116538418072701820000011625117803207145151_);}
	.st30{fill:#7E400D;}
	.st31{fill:url(#SVGID_00000116209407410008312050000016806413034240102528_);}
	.st32{fill:url(#SVGID_00000089553177040111359190000007414710880268744591_);}
	.st33{fill:url(#SVGID_00000034774461850885139640000013684879175084436376_);}
	.st34{fill:#FF0E01;}
	.st35{fill:#4395C5;}
	.st36{fill:#010101;}
	.st37{fill:#231F20;}
</style>
<g>
	<path d="M996.51,473.26c3.38,30.74,4.32,62.33,2.76,93.91c-2.74,56.06-13.14,112.14-30.91,166.65
		c-17.77,54.5-42.49,106.15-73.46,153.53c-65.62,100.36-155.28,175.71-259.29,217.91c-45.38,18.4-91.71,27.74-137.75,27.74
		c-112.59,0-222.41-65.09-287.65-126C83.59,888.77,1.08,701.28,0.01,529.37C-0.62,427.21,28.02,326.8,82.87,238.98
		C139.02,149.04,218.26,79.87,312,38.95c2.4-1.05,4.77-2.06,7.13-3.06C375.45,12.4,437.24,0,497.85,0
		c123.32,0,243.27,51.62,337.76,145.37c44.21,43.85,80.7,94.59,108.46,150.82C972.22,353.19,989.86,412.76,996.51,473.26z
		 M954.57,565.04c1.43-29.3,0.58-58.58-2.55-87.04C929.05,269.3,748.89,44.06,497.85,44.06c-54.66,0-110.41,11.2-161.22,32.39
		c-2.16,0.91-4.34,1.84-6.52,2.79C158.24,154.28,43.57,335.07,44.77,529.1c1,160.52,78.04,335.56,196.25,445.95
		c58.98,55.06,157.42,113.9,256.84,113.9c40.15,0,80.76-8.22,120.69-24.43C808.71,987.38,943.73,786.66,954.57,565.04z"/>
	<linearGradient id="SVGID_1_" gradientUnits="userSpaceOnUse" x1="205.562" y1="157.832" x2="800.6794" y2="947.5795">
		<stop  offset="0" style="stop-color:#FFFA1E"/>
		<stop  offset="7.988989e-03" style="stop-color:#FFF91E"/>
		<stop  offset="0.449" style="stop-color:#FFCF15"/>
		<stop  offset="0.7946" style="stop-color:#FFB510"/>
		<stop  offset="1" style="stop-color:#FFAB0E"/>
	</linearGradient>
	<path class="st0" d="M952.01,478c3.13,28.46,3.99,57.74,2.55,87.04c-10.83,221.62-145.86,422.34-336.01,499.48
		c-39.93,16.21-80.54,24.43-120.69,24.43c-99.43,0-197.87-58.84-256.84-113.9C122.81,864.65,45.77,689.62,44.77,529.1
		c-1.2-194.03,113.47-374.82,285.35-449.86c2.17-0.95,4.36-1.88,6.52-2.79c50.81-21.2,106.56-32.39,161.22-32.39
		C748.89,44.06,929.05,269.3,952.01,478z"/>
	<g id="XMLID_00000107554543030810826820000016257651971855200925_">
		<g>
			<path d="M800,626.57c7.07,5.95,18.15,87.34-26.21,126.04c-44.36,38.72-175.45,186.59-188.56,192.55
				c-13.1,5.95-111.92,8.93-141.16,3.97S281.73,812.17,232.32,755.6c-49.4-56.57-42.74-129.02-42.74-129.02
				S792.94,620.61,800,626.57z M607.42,866.1v-12.57c0-19.19-15.81-34.74-35.29-34.74H422.9c-19.5,0-35.29,15.55-35.29,34.74v12.57
				c0,19.18,15.8,34.74,35.29,34.74h149.23C591.61,900.84,607.42,885.28,607.42,866.1z"/>
		</g>
	</g>
	<path class="st34" d="M607.42,853.54v12.57c0,19.18-15.81,34.74-35.29,34.74H422.89c-19.5,0-35.29-15.56-35.29-34.74v-12.57
		c0-19.19,15.8-34.74,35.29-34.74h149.23C591.61,818.8,607.42,834.35,607.42,853.54z"/>
	<g>
		<path d="M581.48,471.8c4.5-21.28,20.31-68.42,72.64-74.66c49.65-5.92,79.15,47.48,90.83,74.66h54.77
			c-1.8-5.66-11.82-35.45-32.16-64.22c-31.94-45.18-73.31-66.14-119.61-60.61c-45.22,5.39-80.32,30.16-101.52,71.62
			c-11.33,22.17-15.56,43.1-17.05,53.21H581.48z"/>
	</g>
	<g>
		<path d="M398.07,471.8c-4.5-21.28-20.31-68.42-72.64-74.66c-49.65-5.92-79.15,47.48-90.83,74.66h-54.77
			c1.8-5.66,11.82-35.45,32.16-64.22c31.94-45.18,73.31-66.14,119.61-60.61c45.22,5.39,80.32,30.16,101.52,71.62
			c11.33,22.17,15.56,43.1,17.05,53.21H398.07z"/>
	</g>
</g>
</svg>
