<?xml version="1.0" encoding="utf-8"?>
<!-- Generator: Adobe Illustrator 26.0.1, SVG Export Plug-In . SVG Version: 6.00 Build 0)  -->
<svg version="1.1" id="Layer_1" xmlns="http://www.w3.org/2000/svg" xmlns:xlink="http://www.w3.org/1999/xlink" x="0px" y="0px"
	 viewBox="0 0 1000 1133" style="enable-background:new 0 0 1000 1133;" xml:space="preserve">
<style type="text/css">
	.st0{fill:url(#SVGID_1_);}
	.st1{fill:url(#SVGID_00000054255607497805519430000008008195893272583819_);}
	.st2{fill:url(#SVGID_00000132781535095564059790000004302881899025877693_);}
	.st3{fill:url(#SVGID_00000139280942570450954260000006594461808754284936_);}
	.st4{fill:url(#SVGID_00000093139978276962290320000002811091395816119704_);}
	.st5{fill:#FFFFFF;}
	.st6{fill:#BEE64E;}
	.st7{fill:#B3F5A4;}
	.st8{fill:url(#SVGID_00000178172403702639904910000009633405192583675826_);}
	.st9{fill:url(#SVGID_00000035533370765624424600000018002438361029691270_);}
	.st10{fill:url(#SVGID_00000156573086762401052140000016249261488735293878_);}
	.st11{fill:url(#SVGID_00000061439568294404257590000006259262328160311992_);}
	.st12{fill:#FF0605;}
	.st13{fill:#FA3306;}
	.st14{fill:url(#SVGID_00000109749586267467942810000018278044494609725843_);}
	.st15{fill:#FF1400;}
	.st16{fill:#FF1602;}
	.st17{fill:url(#SVGID_00000103232343139301724300000003101391043486972334_);}
	.st18{fill:url(#SVGID_00000114773015716866824660000017513182525144704422_);}
	.st19{fill:url(#SVGID_00000141446774616254681300000006272750469369948581_);}
	.st20{fill:url(#SVGID_00000088841728714491772940000004739539743561713077_);}
	.st21{fill:url(#SVGID_00000048478166497098231010000008434880855879694783_);}
	.st22{fill:#FF1901;}
	.st23{fill:#FFFFFE;}
	.st24{fill:url(#SVGID_00000098906137786008883560000015870429778742549677_);}
	.st25{fill:url(#SVGID_00000128481795682407280570000014510269903140027277_);}
	.st26{fill:url(#SVGID_00000001651525624201126110000014461944995684352906_);}
	.st27{fill:url(#SVGID_00000127024058007820917980000009304015292588529560_);}
	.st28{fill:url(#SVGID_00000098220068240873961340000013241788873053721267_);}
	.st29{fill:url(#SVGID_00000147935194663402822520000017786313443802562446_);}
	.st30{fill:#7E400D;}
	.st31{fill:url(#SVGID_00000137851589663145415080000000035364221294051221_);}
	.st32{fill:url(#SVGID_00000143598814347038223070000006454366518256845972_);}
	.st33{fill:url(#SVGID_00000147932671425676607560000001758046391211973508_);}
	.st34{fill:#FF0E01;}
	.st35{fill:#4395C5;}
	.st36{fill:#010101;}
	.st37{fill:#231F20;}
</style>
<g>
	<path class="st13" d="M826.57,163.42c0,0,58.48-84.03,92.76-115.13s55.79-13.23,43.69,73.45c-12.1,86.68-34.28,171.38-69.24,153.51
		c-34.95-17.87-90.08-74.77-78.65-93.3C826.57,163.42,826.57,163.42,826.57,163.42z"/>
	<path class="st13" d="M169.32,176.84c0,0-58.48-84.03-92.76-115.13s-55.79-13.23-43.69,73.45s34.28,171.38,69.24,153.51
		c34.95-17.87,90.08-74.77,78.65-93.3S169.32,176.84,169.32,176.84z"/>
	<path d="M996.51,473.26c3.38,30.74,4.32,62.33,2.76,93.91c-2.74,56.06-13.14,112.14-30.91,166.65
		c-17.77,54.5-42.49,106.15-73.46,153.53c-65.62,100.36-155.28,175.71-259.29,217.91c-45.38,18.4-91.71,27.74-137.75,27.74
		c-112.59,0-222.41-65.09-287.65-126C83.59,888.77,1.08,701.28,0.01,529.37C-0.62,427.21,28.02,326.8,82.87,238.98
		C139.02,149.04,218.26,79.87,312,38.95c2.4-1.05,4.77-2.06,7.13-3.06C375.45,12.4,437.24,0,497.85,0
		c123.32,0,243.27,51.62,337.76,145.37c44.21,43.85,80.7,94.59,108.46,150.82C972.22,353.19,989.86,412.76,996.51,473.26z
		 M954.57,565.04c1.43-29.3,0.58-58.58-2.55-87.04C929.05,269.3,748.89,44.06,497.85,44.06c-54.66,0-110.41,11.2-161.22,32.39
		c-2.16,0.91-4.34,1.84-6.52,2.79C158.24,154.28,43.57,335.07,44.77,529.1c1,160.52,78.04,335.56,196.25,445.95
		c58.98,55.06,157.42,113.9,256.84,113.9c40.15,0,80.76-8.22,120.69-24.43C808.71,987.38,943.73,786.66,954.57,565.04z"/>
	<linearGradient id="SVGID_1_" gradientUnits="userSpaceOnUse" x1="205.562" y1="157.832" x2="800.6794" y2="947.5795">
		<stop  offset="0" style="stop-color:#FFFA1E"/>
		<stop  offset="7.988989e-03" style="stop-color:#FFF91E"/>
		<stop  offset="0.449" style="stop-color:#FFCF15"/>
		<stop  offset="0.7946" style="stop-color:#FFB510"/>
		<stop  offset="1" style="stop-color:#FFAB0E"/>
	</linearGradient>
	<path class="st0" d="M952.01,478c3.13,28.46,3.99,57.74,2.55,87.04c-10.83,221.62-145.86,422.34-336.01,499.48
		c-39.93,16.21-80.54,24.43-120.69,24.43c-99.43,0-197.87-58.84-256.84-113.9C122.81,864.65,45.77,689.62,44.77,529.1
		c-1.2-194.03,113.47-374.82,285.35-449.86c2.17-0.95,4.36-1.88,6.52-2.79c50.81-21.2,106.56-32.39,161.22-32.39
		C748.89,44.06,929.05,269.3,952.01,478z"/>
	<g id="XMLID_00000020378131964916371880000002530711192049727678_">
		<g>
			<path d="M815.74,513.12c11.1,31.27,10.08,89.82-32.77,101.75c-42.86,11.91-20.17,34.73-56.97,69.97
				c-36.81,35.23-88.73,6.44-105.37-14.89c-16.64-21.34-2.01-42.68-2.01-42.68c1.74-2.46,5.28-4.39,10.08-5.92
				c27.16-8.68,94.73-4.56,105.87-10.46c13.11-6.95,10.58-87.34,18.15-116.62c0.86-3.29,2.17-6.01,3.86-8.18
				C769.85,468.97,805.9,485.39,815.74,513.12z"/>
			<path d="M762.14,709.42c16.24-1.98,54.33-7.28,47.6,33.08c-6.71,40.36-71.24,140.28-139.82,191.89
				c-68.56,51.61-250.74,50.28-344.85-15.23S184.59,730.59,184.59,730.59s19.5-19.85,43.69-18.53c24.2,1.32,57.66,53.59,57.66,53.59
				s82.83-11.91,190.52-15.21s244.55,19.85,244.55,19.85S745.88,711.4,762.14,709.42z M671.44,883.74v-23.1
				c0-9.51-7.71-17.23-17.23-17.23H345.85c-9.52,0-17.24,7.72-17.24,17.23v23.1c0,9.51,7.73,17.23,17.24,17.23h308.36
				C663.72,900.98,671.44,893.26,671.44,883.74z"/>
			<path class="st22" d="M756.58,486.09c-1.68,2.16-3,4.89-3.86,8.18c-7.57,29.28-5.04,109.68-18.15,116.62
				c-11.14,5.9-78.71,1.78-105.87,10.46c-29.92-21.57-20.77-64.92-20.58-65.84c22.16-3.29,48.11-17.22,79.39-45.86
				c15.94-14.59,28.76-31.64,38.97-49.14C752.69,454.55,756.58,486.09,756.58,486.09z"/>
			<path d="M608.13,555.51c-18.79,2.79-34.82-2.09-49.01-12.1c-30.92-21.83,18.15-54.93,18.15-54.93
				c81.34-60.2,107.55-107.19,133.77-132.33c26.21-25.15,51.09-25.81,51.09-5.3c0,14.86-8.82,63.73-35.65,109.66
				c-10.2,17.49-23.02,34.55-38.97,49.14C656.25,538.29,630.29,552.22,608.13,555.51z"/>
			<path class="st23" d="M671.44,860.64v23.1c0,9.51-7.71,17.23-17.23,17.23H345.85c-9.52,0-17.24-7.72-17.24-17.23v-23.1
				c0-9.51,7.73-17.23,17.24-17.23h308.36C663.72,843.41,671.44,851.13,671.44,860.64z"/>
			<path d="M404.29,555.51c-22.14-3.29-48.11-17.22-79.38-45.86c-15.94-14.59-28.76-31.64-38.97-49.14
				c-26.84-45.94-35.65-94.8-35.65-109.66c0-20.51,24.87-19.85,51.08,5.3c26.22,25.14,52.43,72.12,133.77,132.33
				c0,0,49.08,33.09,18.15,54.93C439.11,553.42,423.07,558.29,404.29,555.51z"/>
			<path class="st22" d="M404.29,555.51c0.2,0.91,9.35,44.25-20.56,65.84h-0.01c-27.17-8.68-94.73-4.56-105.87-10.46
				c-13.1-6.95-10.58-87.34-18.14-116.62c-0.86-3.3-2.17-6.03-3.87-8.19c0.11-0.76,4.24-31.45,30.11-25.57
				c10.2,17.49,23.02,34.55,38.97,49.14C356.17,538.29,382.14,552.22,404.29,555.51z"/>
			<path d="M255.83,486.08c1.7,2.16,3.01,4.89,3.87,8.19c7.56,29.28,5.04,109.68,18.14,116.62c11.14,5.9,78.7,1.78,105.87,10.46
				h0.01c4.8,1.53,8.35,3.46,10.08,5.92c0,0,14.61,21.34-2.01,42.68c-16.64,21.33-68.57,50.12-105.38,14.89
				c-36.79-35.25-14.11-58.06-56.96-69.97c-42.86-11.92-43.86-70.48-32.78-101.75C206.52,485.39,242.55,468.99,255.83,486.08z"/>
		</g>
	</g>
</g>
<g>
	<path d="M923.02,293.14l-11.87-7.42l5.94,3.71l-5.94-3.7c0.25-0.4,25.1-40.9,40.45-114.66c14.04-67.5,16.09-111.27,6.1-130.1
		c-1.67-3.15-3.87-4.71-7.14-5.07c-10.46-1.13-28.11,10.28-42.95,27.76c-22.98,27.06-77.1,90.89-77.1,90.89l-10.68-9.05
		c0,0,54.13-63.83,77.11-90.9c18.51-21.8,39.63-34.3,55.13-32.62c7.92,0.86,14.14,5.15,17.99,12.42
		c11.89,22.41,10.38,66.74-4.76,139.52C949.4,250.35,924.09,291.42,923.02,293.14z"/>
</g>
<g>
	<path d="M60.86,281.02c-0.5-0.84-12.37-20.95-22.87-60.25c-10.5-39.28-14.58-68.86-18.91-100.17c-4.59-33.18,2.02-55.85,5.58-68.02
		C26.99,44.6,32.85,38.56,40.74,36c8.36-2.71,22.56-2.65,42.68,13c28.15,21.89,77.07,95.05,79.14,98.15l-11.65,7.77
		c-0.49-0.74-49.73-74.37-76.09-94.87C63.08,50.92,52.23,47,45.05,49.32c-4.67,1.51-6.36,5.14-6.95,7.17
		c-3.26,11.17-9.32,31.97-5.15,62.19c4.27,30.87,8.3,60.03,18.57,98.47c9.94,37.2,21.25,56.5,21.37,56.69L60.86,281.02z"/>
</g>
</svg>
