<?xml version="1.0" encoding="utf-8"?>
<!-- Generator: Adobe Illustrator 26.0.1, SVG Export Plug-In . SVG Version: 6.00 Build 0)  -->
<svg version="1.1" id="Layer_1" xmlns="http://www.w3.org/2000/svg" xmlns:xlink="http://www.w3.org/1999/xlink" x="0px" y="0px"
	 viewBox="0 0 1000 1133" style="enable-background:new 0 0 1000 1133;" xml:space="preserve">
<style type="text/css">
	.st0{fill:url(#SVGID_1_);}
	.st1{fill:url(#SVGID_00000011012248149265007370000002038699115045978020_);}
	.st2{fill:url(#SVGID_00000169526454770968360540000009095255849791643574_);}
	.st3{fill:url(#SVGID_00000049924704049157367900000005843000318079050427_);}
	.st4{fill:url(#SVGID_00000128466715785530798660000006136869662459505798_);}
	.st5{fill:#FFFFFF;}
	.st6{fill:#BEE64E;}
	.st7{fill:#B3F5A4;}
	.st8{fill:url(#SVGID_00000078760082687299877030000007833061653092254641_);}
	.st9{fill:url(#SVGID_00000161623117368606514160000016725416256285199496_);}
	.st10{fill:url(#SVGID_00000140736197799156079630000002081651636829341316_);}
	.st11{fill:url(#SVGID_00000024699504690834684970000009297430114170269845_);}
	.st12{fill:#FF0605;}
	.st13{fill:#FA3306;}
	.st14{fill:url(#SVGID_00000145757203839114019550000018150469093865079698_);}
	.st15{fill:#FF1400;}
	.st16{fill:#FF1602;}
	.st17{fill:url(#SVGID_00000117651211873625078740000012755677150058196104_);}
	.st18{fill:url(#SVGID_00000123403825173398637160000015238714810381306521_);}
	.st19{fill:url(#SVGID_00000178904503936129338370000004738690686333291404_);}
	.st20{fill:url(#SVGID_00000133493382870470834950000013998448261831009424_);}
	.st21{fill:url(#SVGID_00000097490113842313294830000005582988094328509826_);}
	.st22{fill:#FF1901;}
	.st23{fill:#FFFFFE;}
	.st24{fill:url(#SVGID_00000022539789286799771830000014125799869852927873_);}
	.st25{fill:url(#SVGID_00000126310529111735371980000017975720089725098122_);}
	.st26{fill:url(#SVGID_00000064337350204470787430000004871915514868727966_);}
	.st27{fill:url(#SVGID_00000090270531825609563400000006742747481895627407_);}
	.st28{fill:url(#SVGID_00000089535857295388051970000013532879815644846245_);}
	.st29{fill:url(#SVGID_00000099637272729100590200000004155064462679496866_);}
	.st30{fill:#7E400D;}
	.st31{fill:url(#SVGID_00000063599740798569676750000004176994864525430413_);}
	.st32{fill:url(#SVGID_00000042736067219357580190000008697526645285048704_);}
	.st33{fill:url(#SVGID_00000177445005807485971440000008184010558217331849_);}
	.st34{fill:#FF0E01;}
	.st35{fill:#4395C5;}
	.st36{fill:#010101;}
	.st37{fill:#231F20;}
</style>
<g>
	<linearGradient id="SVGID_1_" gradientUnits="userSpaceOnUse" x1="205.562" y1="157.832" x2="800.6794" y2="947.5795">
		<stop  offset="0" style="stop-color:#FFFA1E"/>
		<stop  offset="7.988989e-03" style="stop-color:#FFF91E"/>
		<stop  offset="0.449" style="stop-color:#FFCF15"/>
		<stop  offset="0.7946" style="stop-color:#FFB510"/>
		<stop  offset="1" style="stop-color:#FFAB0E"/>
	</linearGradient>
	<path class="st0" d="M952.01,478c3.13,28.46,3.99,57.74,2.55,87.04c-10.83,221.62-145.86,422.34-336.01,499.48
		c-39.93,16.21-80.54,24.43-120.69,24.43c-99.43,0-197.87-58.84-256.84-113.9C122.81,864.65,45.77,689.62,44.77,529.1
		c-1.2-194.03,113.47-374.82,285.35-449.86c2.17-0.95,4.36-1.88,6.52-2.79c50.81-21.2,106.56-32.39,161.22-32.39
		C748.89,44.06,929.05,269.3,952.01,478z"/>
	<path d="M996.51,473.26c3.38,30.74,4.32,62.33,2.76,93.91c-2.74,56.06-13.14,112.14-30.91,166.65
		c-17.77,54.5-42.49,106.15-73.46,153.53c-65.62,100.36-155.28,175.71-259.29,217.91c-45.38,18.4-91.71,27.74-137.75,27.74
		c-112.59,0-222.41-65.09-287.65-126C83.59,888.77,1.08,701.28,0.01,529.37C-0.62,427.21,28.02,326.8,82.87,238.98
		C139.02,149.04,218.26,79.87,312,38.95c2.4-1.05,4.77-2.06,7.13-3.06C375.45,12.4,437.24,0,497.85,0
		c123.32,0,243.27,51.62,337.76,145.37c44.21,43.85,80.7,94.59,108.46,150.82C972.22,353.19,989.86,412.76,996.51,473.26z
		 M954.57,565.04c1.43-29.3,0.58-58.58-2.55-87.04C929.05,269.3,748.89,44.06,497.85,44.06c-54.66,0-110.41,11.2-161.22,32.39
		c-2.16,0.91-4.34,1.84-6.52,2.79C158.24,154.28,43.57,335.07,44.77,529.1c1,160.52,78.04,335.56,196.25,445.95
		c58.98,55.06,157.42,113.9,256.84,113.9c40.15,0,80.76-8.22,120.69-24.43C808.71,987.38,943.73,786.66,954.57,565.04z"/>
	<g>
		<ellipse cx="671.75" cy="449.14" rx="64.2" ry="35.07"/>
	</g>
	<g>
		<path d="M366.12,495.45h-85.16c-15.65,0-28.34-12.69-28.34-28.34v-37.94c0-15.65,12.69-28.34,28.34-28.34h85.16
			c15.65,0,28.34,12.69,28.34,28.34v37.94C394.46,482.77,381.77,495.45,366.12,495.45z"/>
	</g>
	<g>
		<path d="M488.74,875.32c-6.46,0-13.14-0.14-20.05-0.43c-45.53-1.9-84.64-9.32-86.28-9.63c-10.35-1.98-17.1-11.85-15.09-22.03
			c2.02-10.18,12.03-16.83,22.38-14.85l0,0c0.38,0.07,38.32,7.25,81.04,8.99c70.14,2.86,95.03-10.59,103.63-18.87
			c52.14-50.21,114.3-124.78,119.51-140.28c1.53-9.86,10.69-16.91,20.87-15.84c10.48,1.09,18.09,10.33,16.99,20.65
			c-0.66,6.14-2.02,18.91-50.2,75.82c-25.5,30.13-56.34,63.28-80.47,86.51C580.39,865.26,542.65,875.32,488.74,875.32z
			 M693.77,679.08c0,0,0,0.01,0,0.01C693.77,679.08,693.77,679.08,693.77,679.08z"/>
	</g>
	<g>
		<path d="M197.77,348.47c0.45-0.15,0.91-0.32,1.36-0.54c4.27-1.99,7.38-5.76,10.45-9.33c21.02-24.46,45.72-45.3,76.43-56.3
			c21.24-7.61,43.8-9.41,65.1-16.03c15.22-4.73,24.9-12.6,24.53-29.54c-0.67-31.1-37.36-35.14-81.58-20.91
			c-27.17,8.75-57.21,29.07-77.4,48.75c-15.09,14.71-47.25,44.5-39.96,69.03C179.16,341.83,188.61,351.44,197.77,348.47z"/>
	</g>
</g>
</svg>
