<?xml version="1.0" encoding="utf-8"?>
<!-- Generator: Adobe Illustrator 26.0.1, SVG Export Plug-In . SVG Version: 6.00 Build 0)  -->
<svg version="1.1" id="Layer_1" xmlns="http://www.w3.org/2000/svg" xmlns:xlink="http://www.w3.org/1999/xlink" x="0px" y="0px"
	 viewBox="0 0 1000 1133" style="enable-background:new 0 0 1000 1133;" xml:space="preserve">
<style type="text/css">
	.st0{fill:url(#SVGID_1_);}
	.st1{fill:url(#SVGID_00000029038938381946254490000008985680456460307074_);}
	.st2{fill:url(#SVGID_00000127020860348793017040000010270625940278617750_);}
	.st3{fill:url(#SVGID_00000103240868590615653850000000815482559659709839_);}
	.st4{fill:url(#SVGID_00000174588434752495463820000000941096515364682164_);}
	.st5{fill:#FFFFFF;}
	.st6{fill:#BEE64E;}
	.st7{fill:#B3F5A4;}
	.st8{fill:url(#SVGID_00000178887918917614563940000002756692125337173128_);}
	.st9{fill:url(#SVGID_00000044883445199484966480000018261651313770596754_);}
	.st10{fill:url(#SVGID_00000024705835746875341530000011436340241497146032_);}
	.st11{fill:url(#SVGID_00000124142453190955520350000007019798457940671649_);}
	.st12{fill:#FF0605;}
	.st13{fill:#FA3306;}
	.st14{fill:url(#SVGID_00000014615000609399666110000012791047469559020672_);}
	.st15{fill:#FF1400;}
	.st16{fill:#FF1602;}
	.st17{fill:url(#SVGID_00000170264409036071463850000013156477129818439313_);}
	.st18{fill:url(#SVGID_00000160191944557529424100000003154526086113608849_);}
	.st19{fill:url(#SVGID_00000157992410566860221660000008015537208337463459_);}
	.st20{fill:url(#SVGID_00000170258920055502415460000002544221788676790920_);}
	.st21{fill:url(#SVGID_00000078744348787071963760000015532399476851595449_);}
	.st22{fill:#FF1901;}
	.st23{fill:#FFFFFE;}
	.st24{fill:url(#SVGID_00000143596809941245576890000001478068519324817325_);}
	.st25{fill:url(#SVGID_00000096740695676807809660000012820581390193418390_);}
	.st26{fill:url(#SVGID_00000035508044722518728480000001476916710234117786_);}
	.st27{fill:url(#SVGID_00000042007087594310161220000014425078351630019491_);}
	.st28{fill:url(#SVGID_00000176722702852987953230000016713962828512365208_);}
	.st29{fill:url(#SVGID_00000132076650091436579360000017796508635213706643_);}
	.st30{fill:#7E400D;}
	.st31{fill:url(#SVGID_00000116935576184809264500000000816268170564636066_);}
	.st32{fill:url(#SVGID_00000096764051076302391690000000122235641026646159_);}
	.st33{fill:url(#SVGID_00000049931273299255067970000017862424019015042956_);}
	.st34{fill:#FF0E01;}
	.st35{fill:#4395C5;}
	.st36{fill:#010101;}
	.st37{fill:#231F20;}
</style>
<g>
	<path d="M996.51,473.26c3.38,30.74,4.32,62.33,2.76,93.91c-2.74,56.06-13.14,112.14-30.91,166.65
		c-17.77,54.5-42.49,106.15-73.46,153.53c-65.62,100.36-155.28,175.71-259.29,217.91c-45.38,18.4-91.71,27.74-137.75,27.74
		c-112.59,0-222.41-65.09-287.65-126C83.59,888.77,1.08,701.28,0.01,529.37C-0.62,427.21,28.02,326.8,82.87,238.98
		C139.02,149.04,218.26,79.87,312,38.95c2.4-1.05,4.77-2.06,7.13-3.06C375.45,12.4,437.24,0,497.85,0
		c123.32,0,243.27,51.62,337.76,145.37c44.21,43.85,80.7,94.59,108.46,150.82C972.22,353.19,989.86,412.76,996.51,473.26z
		 M954.57,565.04c1.43-29.3,0.58-58.58-2.55-87.04C929.05,269.3,748.89,44.06,497.85,44.06c-54.66,0-110.41,11.2-161.22,32.39
		c-2.16,0.91-4.34,1.84-6.52,2.79C158.24,154.28,43.57,335.07,44.77,529.1c1,160.52,78.04,335.56,196.25,445.95
		c58.98,55.06,157.42,113.9,256.84,113.9c40.15,0,80.76-8.22,120.69-24.43C808.71,987.38,943.73,786.66,954.57,565.04z"/>
	<linearGradient id="SVGID_1_" gradientUnits="userSpaceOnUse" x1="205.562" y1="157.832" x2="800.6794" y2="947.5795">
		<stop  offset="0" style="stop-color:#FFFA1E"/>
		<stop  offset="7.988989e-03" style="stop-color:#FFF91E"/>
		<stop  offset="0.449" style="stop-color:#FFCF15"/>
		<stop  offset="0.7946" style="stop-color:#FFB510"/>
		<stop  offset="1" style="stop-color:#FFAB0E"/>
	</linearGradient>
	<path class="st0" d="M952.01,478c3.13,28.46,3.99,57.74,2.55,87.04c-10.83,221.62-145.86,422.34-336.01,499.48
		c-39.93,16.21-80.54,24.43-120.69,24.43c-99.43,0-197.87-58.84-256.84-113.9C122.81,864.65,45.77,689.62,44.77,529.1
		c-1.2-194.03,113.47-374.82,285.35-449.86c2.17-0.95,4.36-1.88,6.52-2.79c50.81-21.2,106.56-32.39,161.22-32.39
		C748.89,44.06,929.05,269.3,952.01,478z"/>
	<ellipse cx="682.64" cy="462.04" rx="67.81" ry="56.33"/>
	<path d="M653.9,220.35c30.45,3.42,60.4,13.08,86.64,29.05c26.11,15.81,48.34,38.05,63.86,63.95c13.35,24.03-19.8,45.02-36.49,23.19
		c-13.44-19.11-31.38-34.56-51.94-45.05c-20.48-10.49-43.43-16.1-66.6-17.01c-15.24-0.6-27.09-13.24-26.48-28.24
		C623.46,230.42,637.98,218.33,653.9,220.35L653.9,220.35z"/>
	<ellipse cx="336.52" cy="462.04" rx="67.81" ry="56.33"/>
	<path d="M369.79,274.47c-46.68,1.52-91.85,23.61-118.5,62c-16.71,21.95-49.83,0.93-36.53-23.12c15.52-25.9,37.75-48.14,63.86-63.95
		c26.32-16.02,56.38-25.69,86.93-29.09c15.15-1.7,28.83,9.01,30.56,23.92C397.99,259.83,385.73,273.9,369.79,274.47L369.79,274.47z"
		/>
	<g id="XMLID_00000100374311520008174400000002572225153828634003_">
		<g>
			<path d="M786.86,627.46c15.47,1.32,38.99,32.42,14.8,80.07c-24.2,47.65-98.14,94.62-140.49,138.29
				c-42.36,43.68-93.44,104.54-147.21,102.56c-53.79-1.98-100.17-46.31-172.77-113.15c-27.92-25.71-54.16-53.18-79.38-81.45
				c-18.71-20.97-46.27-42-56.32-69.35c-1.15-3.12-2.05-6.32-2.71-9.61c-2.9-14.69,1.16-64.6,27.83-53.15
				c27.43,11.78,46.01,43.21,64.87,64.7h419.46C714.95,686.35,771.41,626.13,786.86,627.46z M682.64,757.48H336.52
				c0,0,124.66,123.07,143.82,127.05c19.17,3.97,24.21,21.83,91.77-20.85C639.65,820.99,682.64,757.48,682.64,757.48z"/>
			<path class="st12" d="M336.52,757.48h346.12c0,0-42.99,63.52-110.54,106.2c-67.56,42.68-72.6,24.81-91.77,20.85
				C461.18,880.55,336.52,757.48,336.52,757.48z"/>
		</g>
	</g>
</g>
</svg>
