<?xml version="1.0" encoding="utf-8"?>
<!-- Generator: Adobe Illustrator 26.0.1, SVG Export Plug-In . SVG Version: 6.00 Build 0)  -->
<svg version="1.1" id="Layer_1" xmlns="http://www.w3.org/2000/svg" xmlns:xlink="http://www.w3.org/1999/xlink" x="0px" y="0px"
	 viewBox="0 0 1000 1133" style="enable-background:new 0 0 1000 1133;" xml:space="preserve">
<style type="text/css">
	.st0{fill:url(#SVGID_1_);}
	.st1{fill:url(#SVGID_00000051374303831982983820000016670929051370964633_);}
	.st2{fill:url(#SVGID_00000036973495550548733790000016009044743330389437_);}
	.st3{fill:url(#SVGID_00000125560635942235578200000017751263298587110035_);}
	.st4{fill:url(#SVGID_00000091706050966352591470000017306315841712143505_);}
	.st5{fill:#FFFFFF;}
	.st6{fill:#BEE64E;}
	.st7{fill:#B3F5A4;}
	.st8{fill:url(#SVGID_00000083789806218797325600000007407532649895816122_);}
	.st9{fill:url(#SVGID_00000090292381819873694680000008818989092672451465_);}
	.st10{fill:url(#SVGID_00000030471309868147921060000001814753530910478465_);}
	.st11{fill:url(#SVGID_00000041275760369069412100000000771235540546412679_);}
	.st12{fill:#FF0605;}
	.st13{fill:#FA3306;}
	.st14{fill:url(#SVGID_00000047774492660881684550000015439668447969849529_);}
	.st15{fill:#FF1400;}
	.st16{fill:#FF1602;}
	.st17{fill:url(#SVGID_00000021106019266139546080000010173441571980026508_);}
	.st18{fill:url(#SVGID_00000085947055094924012140000011123499774946903690_);}
	.st19{fill:url(#SVGID_00000158024381476163613840000003804496553544968355_);}
	.st20{fill:url(#SVGID_00000140015610448523010030000001582426757046145442_);}
	.st21{fill:url(#SVGID_00000157273028349961704430000002212206301075353744_);}
	.st22{fill:#FF1901;}
	.st23{fill:#FFFFFE;}
	.st24{fill:url(#SVGID_00000030449232140260292690000001293204004377797054_);}
	.st25{fill:url(#SVGID_00000114769189278294166910000002078960939727475105_);}
	.st26{fill:url(#SVGID_00000114772816189520691790000012266243597462071722_);}
	.st27{fill:url(#SVGID_00000072965185662150159650000004105892270824383422_);}
	.st28{fill:url(#SVGID_00000155134844127065918430000004693581486284023471_);}
	.st29{fill:url(#SVGID_00000111178263545760071450000003182954790939902132_);}
	.st30{fill:#7E400D;}
	.st31{fill:url(#SVGID_00000039136214138398118930000010166756556869819034_);}
	.st32{fill:url(#SVGID_00000023258098768388010840000007558550325169174177_);}
	.st33{fill:url(#SVGID_00000153675863776250166490000017327553078316058531_);}
	.st34{fill:#FF0E01;}
	.st35{fill:#4395C5;}
	.st36{fill:#010101;}
	.st37{fill:#231F20;}
</style>
<g>
	<linearGradient id="SVGID_1_" gradientUnits="userSpaceOnUse" x1="277.3725" y1="248.5221" x2="803.813" y2="957.4222">
		<stop  offset="0" style="stop-color:#01FF8D"/>
		<stop  offset="0.0695" style="stop-color:#02F789"/>
		<stop  offset="0.4831" style="stop-color:#0ACD76"/>
		<stop  offset="0.8073" style="stop-color:#0FB36A"/>
		<stop  offset="1" style="stop-color:#11A965"/>
	</linearGradient>
	<path class="st0" d="M952.01,478c3.13,28.46,3.99,57.74,2.55,87.04c-10.83,221.62-145.86,422.34-336.01,499.48
		c-39.93,16.21-80.54,24.43-120.69,24.43c-99.43,0-197.87-58.84-256.84-113.9C122.81,864.65,45.77,689.62,44.77,529.1
		c-1.2-194.03,113.47-374.82,285.35-449.86c2.17-0.95,4.36-1.88,6.52-2.79c50.81-21.2,106.56-32.39,161.22-32.39
		C748.89,44.06,929.05,269.3,952.01,478z"/>
	<path d="M996.51,473.26c3.38,30.74,4.32,62.33,2.76,93.91c-2.74,56.06-13.14,112.14-30.91,166.65
		c-17.77,54.5-42.49,106.15-73.46,153.53c-65.62,100.36-155.28,175.71-259.29,217.91c-45.38,18.4-91.71,27.74-137.75,27.74
		c-112.59,0-222.41-65.09-287.65-126C83.59,888.77,1.08,701.28,0.01,529.37C-0.62,427.21,28.02,326.8,82.87,238.98
		C139.02,149.04,218.26,79.87,312,38.95c2.4-1.05,4.77-2.06,7.13-3.06C375.45,12.4,437.24,0,497.85,0
		c123.32,0,243.27,51.62,337.76,145.37c44.21,43.85,80.7,94.59,108.46,150.82C972.22,353.19,989.86,412.76,996.51,473.26z
		 M954.57,565.04c1.43-29.3,0.58-58.58-2.55-87.04C929.05,269.3,748.89,44.06,497.85,44.06c-54.66,0-110.41,11.2-161.22,32.39
		c-2.16,0.91-4.34,1.84-6.52,2.79C158.24,154.28,43.57,335.07,44.77,529.1c1,160.52,78.04,335.56,196.25,445.95
		c58.98,55.06,157.42,113.9,256.84,113.9c40.15,0,80.76-8.22,120.69-24.43C808.71,987.38,943.73,786.66,954.57,565.04z"/>
	<g>
		<g id="XMLID_00000029041503150444885410000007308500677640365478_">
			<g>
				<path class="st5" d="M794.73,558.03c6.9,101.27-16.43,183.26-69.45,244.02c-20.54,23.52-44.1,42.09-67.91,56.7V558.03H794.73z"
					/>
				<path d="M788.14,383.92c9.27,11.48,7.32,28.2-4.34,37.32c-4.96,3.89-10.89,5.77-16.77,5.77c-7.95,0-15.82-3.43-21.15-10.03
					c-13.02-16.05-58.15-61.68-92.85-60.45c-34.92,1.22-67.94,36.71-77.72,50.28c-8.54,12.02-25.35,14.91-37.56,6.5
					c-12.22-8.42-15.15-25.01-6.61-37.03c2.04-2.86,50.85-70.41,119.95-72.85C719.2,301.02,781.28,375.44,788.14,383.92z"/>
				<path d="M657.36,858.75v44.59c0,10-5.62,18.71-13.91,23.25c-1.17,0.56-2.34,1.09-3.51,1.61c-2.98,1.1-6.19,1.71-9.56,1.71
					c-14.9,0-26.99-11.9-26.99-26.56v-17.42C620.7,878.89,639.1,869.99,657.36,858.75z"/>
				<path d="M657.36,558.03v300.73c-18.26,11.23-36.66,20.14-53.97,27.17v-327.9H657.36z"/>
				<path d="M657.36,531.46v26.56h-53.97v-26.56c0-14.67,12.08-26.56,26.99-26.56C645.28,504.9,657.36,516.8,657.36,531.46z"/>
				<path d="M765.86,837.08c-32.04,36.58-73.68,66.94-122.41,89.51c8.29-4.54,13.91-13.24,13.91-23.25v-44.59
					c23.81-14.62,47.38-33.19,67.91-56.7c53.03-60.76,76.35-142.76,69.45-244.02H657.36v-26.56c0-14.67-12.08-26.56-26.99-26.56
					h213.26l2.62,23.69C860.39,656.22,833.34,760.01,765.86,837.08z"/>
				<path d="M639.93,928.2c1.17-0.52,2.34-1.05,3.51-1.61C642.33,927.2,641.16,927.74,639.93,928.2z"/>
				<path d="M338.46,504.9h291.91c-14.9,0-26.99,11.9-26.99,26.56v26.56H365.45v-26.56C365.45,516.8,353.38,504.9,338.46,504.9z"/>
				<path class="st5" d="M603.39,558.03v327.9c-12.86,5.23-25.1,9.43-36.24,12.79c-44.07,13.29-79.77,16.39-88.54,16.99
					c-41.77-5.53-79.52-14.9-113.16-28.05V558.03H603.39z"/>
				<path d="M442.45,379.4c9.28,11.49,7.33,28.2-4.33,37.33c-4.96,3.87-10.89,5.77-16.77,5.77c-7.95,0-15.82-3.45-21.15-10.04
					c-12.86-15.83-56.93-60.47-91.48-60.47c-0.46,0-0.92,0.01-1.37,0.03c-34.92,1.23-67.94,36.71-77.72,50.29
					c-8.54,12.01-25.35,14.9-37.56,6.49c-12.22-8.41-15.17-25.01-6.61-37.02c2.04-2.88,50.85-70.43,119.95-72.86
					C373.48,296.51,435.6,370.92,442.45,379.4z"/>
				<path d="M365.45,887.65v17.62c0,14.67-12.07,26.56-26.99,26.56c-4.19,0-8.16-0.95-11.7-2.62c-9.04-4.29-15.28-13.4-15.28-23.95
					v-44.08C328.08,871.26,346.08,880.08,365.45,887.65z"/>
				<path d="M365.45,558.03v329.62c-19.36-7.57-37.37-16.39-53.97-26.46V558.03H365.45z"/>
				<path d="M365.45,531.46v26.56h-53.97v-26.56c0-14.67,12.08-26.56,26.99-26.56C353.38,504.9,365.45,516.8,365.45,531.46z"/>
				<path d="M474.13,968.7c-55.12-7.06-104.31-20.25-147.39-39.44l0.01-0.04c3.54,1.67,7.52,2.62,11.7,2.62
					c14.91,0,26.99-11.9,26.99-26.56v-17.62c33.63,13.15,71.39,22.52,113.16,28.05c8.77-0.6,44.47-3.69,88.54-16.99
					c11.14-3.36,23.38-7.55,36.24-12.79v17.42c0,14.67,12.08,26.56,26.99,26.56c3.37,0,6.58-0.61,9.56-1.71
					c-18.63,8.45-38.27,15.76-58.79,21.86c-56.87,16.92-100.64,18.78-102.47,18.85L476.4,969L474.13,968.7z"/>
				<path d="M326.75,929.26c-57.54-25.63-104.14-61.98-139.3-108.79c-96.27-128.15-70.34-286.75-69.18-293.44l3.8-22.12h216.39
					c-14.9,0-26.99,11.9-26.99,26.56v26.56H169.19c-1.04,15.47-1.55,38.01,0.91,64.23c4.19,44.81,18.18,110.17,61.04,167.01
					c21.51,28.52,48.35,52.52,80.34,71.92v44.08c0,10.55,6.24,19.66,15.28,23.95L326.75,929.26z"/>
				<path class="st5" d="M311.48,558.03v303.16c-31.99-19.4-58.83-43.4-80.34-71.92c-42.86-56.85-56.86-122.21-61.04-167.01
					c-2.46-26.23-1.95-48.76-0.91-64.23H311.48z"/>
			</g>
		</g>
	</g>
</g>
</svg>
