<?xml version="1.0" encoding="utf-8"?>
<!-- Generator: Adobe Illustrator 26.0.1, SVG Export Plug-In . SVG Version: 6.00 Build 0)  -->
<svg version="1.1" id="Layer_1" xmlns="http://www.w3.org/2000/svg" xmlns:xlink="http://www.w3.org/1999/xlink" x="0px" y="0px"
	 viewBox="0 0 1000 1133" style="enable-background:new 0 0 1000 1133;" xml:space="preserve">
<style type="text/css">
	.st0{fill:url(#SVGID_1_);}
	.st1{fill:url(#SVGID_00000043438653210327652970000004290796857877931913_);}
	.st2{fill:url(#SVGID_00000111164690274093723990000000050376175463727751_);}
	.st3{fill:url(#SVGID_00000132057123011174951840000002068473959292215170_);}
	.st4{fill:url(#SVGID_00000060031884132075299260000008258289066267647122_);}
	.st5{fill:#FFFFFF;}
	.st6{fill:#BEE64E;}
	.st7{fill:#B3F5A4;}
	.st8{fill:url(#SVGID_00000158024588095069004140000013268096189035031197_);}
	.st9{fill:url(#SVGID_00000074436600551985833970000000758246373904229504_);}
	.st10{fill:url(#SVGID_00000016758509961365607400000000206467255691635367_);}
	.st11{fill:url(#SVGID_00000074400160171661416370000003603391443634220929_);}
	.st12{fill:#FF0605;}
	.st13{fill:#FA3306;}
	.st14{fill:url(#SVGID_00000028317257234911001440000016410021830415894446_);}
	.st15{fill:#FF1400;}
	.st16{fill:#FF1602;}
	.st17{fill:url(#SVGID_00000065070219271936591170000006720747011170814137_);}
	.st18{fill:url(#SVGID_00000002346128125648473260000016993996303529652398_);}
	.st19{fill:url(#SVGID_00000129185042505535844060000010326925829440795562_);}
	.st20{fill:url(#SVGID_00000015338270095368765640000004903252192231224207_);}
	.st21{fill:url(#SVGID_00000108291612854957136770000008319779897142513069_);}
	.st22{fill:#FF1901;}
	.st23{fill:#FFFFFE;}
	.st24{fill:url(#SVGID_00000066490085042373813830000008884832795409089198_);}
	.st25{fill:url(#SVGID_00000011720887960806083740000012950631707371345838_);}
	.st26{fill:url(#SVGID_00000045581504190631551860000003648659331827298494_);}
	.st27{fill:url(#SVGID_00000094595093164973379460000002789987496808267658_);}
	.st28{fill:url(#SVGID_00000124862593104459019860000016827235804786077075_);}
	.st29{fill:url(#SVGID_00000019660666705789259300000011030420528933326740_);}
	.st30{fill:#7E400D;}
	.st31{fill:url(#SVGID_00000177445847756602477460000008565521577370431644_);}
	.st32{fill:url(#SVGID_00000044150223865908746900000014639287653711860110_);}
	.st33{fill:url(#SVGID_00000124144727411480040760000003851970390479212479_);}
	.st34{fill:#FF0E01;}
	.st35{fill:#4395C5;}
	.st36{fill:#010101;}
	.st37{fill:#231F20;}
</style>
<g>
	<path d="M996.51,473.26c3.38,30.74,4.32,62.33,2.76,93.91c-2.74,56.06-13.14,112.14-30.91,166.65
		c-17.77,54.5-42.49,106.15-73.46,153.53c-65.62,100.36-155.28,175.71-259.29,217.91c-45.38,18.4-91.71,27.74-137.75,27.74
		c-112.59,0-222.41-65.09-287.65-126C83.59,888.77,1.08,701.28,0.01,529.37C-0.62,427.21,28.02,326.8,82.87,238.98
		C139.02,149.04,218.26,79.87,312,38.95c2.4-1.05,4.77-2.06,7.13-3.06C375.45,12.4,437.24,0,497.85,0
		c123.32,0,243.27,51.62,337.76,145.37c44.21,43.85,80.7,94.59,108.46,150.82C972.22,353.19,989.86,412.76,996.51,473.26z
		 M954.57,565.04c1.43-29.3,0.58-58.58-2.55-87.04C929.05,269.3,748.89,44.06,497.85,44.06c-54.66,0-110.41,11.2-161.22,32.39
		c-2.16,0.91-4.34,1.84-6.52,2.79C158.24,154.28,43.57,335.07,44.77,529.1c1,160.52,78.04,335.56,196.25,445.95
		c58.98,55.06,157.42,113.9,256.84,113.9c40.15,0,80.76-8.22,120.69-24.43C808.71,987.38,943.73,786.66,954.57,565.04z"/>
	<linearGradient id="SVGID_1_" gradientUnits="userSpaceOnUse" x1="205.562" y1="157.832" x2="800.6794" y2="947.5795">
		<stop  offset="0" style="stop-color:#FFFA1E"/>
		<stop  offset="7.988989e-03" style="stop-color:#FFF91E"/>
		<stop  offset="0.449" style="stop-color:#FFCF15"/>
		<stop  offset="0.7946" style="stop-color:#FFB510"/>
		<stop  offset="1" style="stop-color:#FFAB0E"/>
	</linearGradient>
	<path class="st0" d="M952.01,478c3.13,28.46,3.99,57.74,2.55,87.04c-10.83,221.62-145.86,422.34-336.01,499.48
		c-39.93,16.21-80.54,24.43-120.69,24.43c-99.43,0-197.87-58.84-256.84-113.9C122.81,864.65,45.77,689.62,44.77,529.1
		c-1.2-194.03,113.47-374.82,285.35-449.86c2.17-0.95,4.36-1.88,6.52-2.79c50.81-21.2,106.56-32.39,161.22-32.39
		C748.89,44.06,929.05,269.3,952.01,478z"/>
	<path d="M560.26,897.43H418.31c-37.65,0-68.17-30.52-68.17-68.17v-20.16h278.29v20.16C628.43,866.9,597.91,897.43,560.26,897.43z"
		/>
</g>
<g>
	<g id="XMLID_00000143603163145327104240000006352370340261323192_">
		<g>
			<path class="st5" d="M744.19,352.18c42.62,24.49,71.49,71.2,71.49,124.67c0,78.78-62.65,142.88-139.65,142.88
				c-77.01,0-139.65-64.1-139.65-142.88c0-45.03,20.47-85.27,52.39-111.47c5.53,47.47,38.03,83.91,77.3,83.91
				C708.91,449.29,743.7,405.92,744.19,352.18z"/>
			<path class="st5" d="M370.71,353.49c42.62,24.5,71.48,71.2,71.48,124.67c0,78.78-62.64,142.87-139.65,142.87
				c-77,0-139.64-64.09-139.64-142.87c0-45.04,20.47-85.27,52.39-111.48c5.52,47.47,38.03,83.92,77.3,83.92
				C335.43,450.6,370.22,407.23,370.71,353.49z"/>
			<path class="st36" d="M730.38,295.19c76.49,23.73,132.3,96.19,132.3,181.66c0,104.7-83.73,189.88-186.65,189.88
				s-186.65-85.18-186.65-189.88c0-76.01,44.14-141.74,107.72-172.04c-5.85,13.77-9.16,29.5-9.16,46.2c0,4.88,0.28,9.68,0.83,14.37
				c-31.92,26.2-52.39,66.44-52.39,111.47c0,78.78,62.64,142.88,139.65,142.88c77,0,139.65-64.1,139.65-142.88
				c0-53.47-28.87-100.18-71.49-124.67c0.01-0.39,0.01-0.78,0.01-1.17C744.2,330.28,739.1,311.04,730.38,295.19z"/>
			<path class="st36" d="M744.2,351.01c0,0.39,0,0.78-0.01,1.17c-20.17-11.59-43.43-18.2-68.16-18.2
				c-32.99,0-63.34,11.76-87.26,31.4c-0.55-4.69-0.83-9.49-0.83-14.37c0-16.7,3.31-32.43,9.16-46.2
				c23.98-11.44,50.74-17.83,78.93-17.83c18.9,0,37.15,2.87,54.35,8.21C739.1,311.04,744.2,330.28,744.2,351.01z"/>
			<path class="st36" d="M666.07,252.74c26.66,0,50.21,16.8,64.31,42.45c-17.2-5.34-35.45-8.21-54.35-8.21
				c-28.19,0-54.95,6.39-78.93,17.83C610.24,273.82,636.2,252.74,666.07,252.74z"/>
			<path class="st36" d="M744.19,352.18c-0.49,53.74-35.28,97.11-78.12,97.11c-39.27,0-71.77-36.44-77.3-83.91
				c23.92-19.64,54.27-31.4,87.26-31.4C700.76,333.98,724.02,340.59,744.19,352.18z"/>
			<path class="st36" d="M356.9,296.51c76.49,23.72,132.29,96.19,132.29,181.65c0,104.7-83.73,189.87-186.65,189.87
				c-102.91,0-186.64-85.17-186.64-189.87c0-76.02,44.14-141.75,107.72-172.05c-5.85,13.77-9.16,29.5-9.16,46.21
				c0,4.88,0.28,9.67,0.83,14.36c-31.92,26.21-52.39,66.44-52.39,111.48c0,78.78,62.64,142.87,139.64,142.87
				c77.01,0,139.65-64.09,139.65-142.87c0-53.47-28.86-100.17-71.48-124.67c0.01-0.39,0.01-0.78,0.01-1.17
				C370.72,331.59,365.62,312.36,356.9,296.51z"/>
			<path class="st36" d="M370.72,352.32c0,0.39,0,0.78-0.01,1.17c-20.17-11.59-43.43-18.2-68.17-18.2
				c-32.98,0-63.33,11.76-87.25,31.39c-0.55-4.69-0.83-9.48-0.83-14.36c0-16.71,3.31-32.44,9.16-46.21
				c23.98-11.43,50.73-17.82,78.92-17.82c18.9,0,37.15,2.87,54.36,8.22C365.62,312.36,370.72,331.59,370.72,352.32z"/>
			<path class="st36" d="M292.59,254.05c26.67,0,50.22,16.8,64.31,42.46c-17.21-5.35-35.46-8.22-54.36-8.22
				c-28.19,0-54.94,6.39-78.92,17.82C236.76,275.13,262.72,254.05,292.59,254.05z"/>
			<path class="st36" d="M370.71,353.49c-0.49,53.74-35.28,97.11-78.12,97.11c-39.27,0-71.78-36.45-77.3-83.92
				c23.92-19.63,54.27-31.39,87.25-31.39C327.28,335.29,350.54,341.9,370.71,353.49z"/>
		</g>
	</g>
</g>
</svg>
