<?xml version="1.0" encoding="utf-8"?>
<!-- Generator: Adobe Illustrator 26.0.1, SVG Export Plug-In . SVG Version: 6.00 Build 0)  -->
<svg version="1.1" id="Layer_1" xmlns="http://www.w3.org/2000/svg" xmlns:xlink="http://www.w3.org/1999/xlink" x="0px" y="0px"
	 viewBox="0 0 1000 1133" style="enable-background:new 0 0 1000 1133;" xml:space="preserve">
<style type="text/css">
	.st0{fill:url(#SVGID_1_);}
	.st1{fill:#FFFFFF;}
</style>
<g>
	<linearGradient id="SVGID_1_" gradientUnits="userSpaceOnUse" x1="205.562" y1="157.832" x2="800.6794" y2="947.5795">
		<stop  offset="0" style="stop-color:#FFFA1E"/>
		<stop  offset="7.988989e-03" style="stop-color:#FFF91E"/>
		<stop  offset="0.449" style="stop-color:#FFCF15"/>
		<stop  offset="0.7946" style="stop-color:#FFB510"/>
		<stop  offset="1" style="stop-color:#FFAB0E"/>
	</linearGradient>
	<path class="st0" d="M952.01,478c3.13,28.46,3.99,57.74,2.55,87.04c-10.83,221.62-145.86,422.34-336.01,499.48
		c-39.93,16.21-80.54,24.43-120.69,24.43c-99.43,0-197.87-58.84-256.84-113.9C122.81,864.65,45.77,689.62,44.77,529.1
		c-1.2-194.03,113.47-374.82,285.35-449.86c2.17-0.95,4.36-1.88,6.52-2.79c50.81-21.2,106.56-32.39,161.22-32.39
		C748.89,44.06,929.05,269.3,952.01,478z"/>
	<path d="M398.83,629.98H174.88c-33.96,0-61.5-27.53-61.5-61.5v-85.31c0-33.96,27.53-61.5,61.5-61.5h223.95
		c33.96,0,61.5,27.53,61.5,61.5v85.31C460.33,602.45,432.8,629.98,398.83,629.98z"/>
	<path d="M809.27,624.63H585.31c-33.96,0-61.5-27.53-61.5-61.5v-85.31c0-33.96,27.53-61.5,61.5-61.5h223.95
		c33.96,0,61.5,27.53,61.5,61.5v85.31C870.76,597.1,843.23,624.63,809.27,624.63z"/>
	<path d="M996.51,473.26c3.38,30.74,4.32,62.33,2.76,93.91c-2.74,56.06-13.14,112.14-30.91,166.65
		c-17.77,54.5-42.49,106.15-73.46,153.53c-65.62,100.36-155.28,175.71-259.29,217.91c-45.38,18.4-91.71,27.74-137.75,27.74
		c-112.59,0-222.41-65.09-287.65-126C83.59,888.77,1.08,701.28,0.01,529.37C-0.62,427.21,28.02,326.8,82.87,238.98
		C139.02,149.04,218.26,79.87,312,38.95c2.4-1.05,4.77-2.06,7.13-3.06C375.45,12.4,437.24,0,497.85,0
		c123.32,0,243.27,51.62,337.76,145.37c44.21,43.85,80.7,94.59,108.46,150.82C972.22,353.19,989.86,412.76,996.51,473.26z
		 M954.57,565.04c1.43-29.3,0.58-58.58-2.55-87.04C929.05,269.3,748.89,44.06,497.85,44.06c-54.66,0-110.41,11.2-161.22,32.39
		c-2.16,0.91-4.34,1.84-6.52,2.79C158.24,154.28,43.57,335.07,44.77,529.1c1,160.52,78.04,335.56,196.25,445.95
		c58.98,55.06,157.42,113.9,256.84,113.9c40.15,0,80.76-8.22,120.69-24.43C808.71,987.38,943.73,786.66,954.57,565.04z"/>
	<path class="st1" d="M354.9,487.6c20.98,0,37.99,16.74,37.99,37.38c0,20.65-17.01,37.4-37.99,37.4c-20.97,0-37.98-16.74-37.98-37.4
		C316.92,504.34,333.93,487.6,354.9,487.6z"/>
	<path class="st1" d="M769.03,483.09c20.98,0,37.99,16.74,37.99,37.38c0,20.65-17.01,37.4-37.99,37.4
		c-20.97,0-37.98-16.74-37.98-37.4C731.05,499.83,748.05,483.09,769.03,483.09z"/>
	<path d="M697.35,773.91c-15.31,29.58-52.87,50.02-61.88,54.6H364.74c0,0-46.39-21.83-63.86-55.58
		c-17.48-33.74-49.75-9.26-27.57,15.21c16.05,17.73,37.23,53.72,63.06,80.46c7.29,19.49,26.06,33.35,48.09,33.35h0.72h227.87h1.53
		c25.42,0,46.93-16.73,54.12-39.77c22.73-25.64,41.6-56.94,56.21-73.07C747.1,764.65,714.83,740.16,697.35,773.91z"/>
</g>
</svg>
