<?xml version="1.0" encoding="utf-8"?>
<!-- Generator: Adobe Illustrator 26.0.1, SVG Export Plug-In . SVG Version: 6.00 Build 0)  -->
<svg version="1.1" id="Layer_1" xmlns="http://www.w3.org/2000/svg" xmlns:xlink="http://www.w3.org/1999/xlink" x="0px" y="0px"
	 viewBox="0 45 1000 1050" style="enable-background:new 0 0 1000 1133;" xml:space="preserve">
<style type="text/css">
	.st0{fill:url(#SVGID_1_);}
	.st1{fill:url(#SVGID_00000142160916938035975290000004678743964457766581_);}
	.st2{fill:url(#SVGID_00000038371441111637694770000008025844591583063172_);}
	.st3{fill:url(#SVGID_00000013892207417047374840000007657610483354517683_);}
	.st4{fill:url(#SVGID_00000003816144658852904760000014541389596704151942_);}
	.st5{fill:#FFFFFF;}
	.st6{fill:#BEE64E;}
	.st7{fill:#B3F5A4;}
	.st8{fill:url(#SVGID_00000103260233128417721350000012248915780715022469_);}
	.st9{fill:url(#SVGID_00000031179739876369968580000002802136562888989062_);}
	.st10{fill:url(#SVGID_00000044168561307375331400000010124511912902203267_);}
	.st11{fill:url(#SVGID_00000011030787255992298720000015856833610653408941_);}
	.st12{fill:#FF0605;}
	.st13{fill:#FA3306;}
	.st14{fill:url(#SVGID_00000004535457362605675140000010027678161304615577_);}
	.st15{fill:#FF1400;}
	.st16{fill:#FF1602;}
	.st17{fill:url(#SVGID_00000085234521532246286730000016846390761982810019_);}
	.st18{fill:url(#SVGID_00000029751068622781252730000005403866413145079464_);}
	.st19{fill:url(#SVGID_00000052067180705772254850000016950914390262010796_);}
	.st20{fill:url(#SVGID_00000128459431412222063230000011388107253005107358_);}
	.st21{fill:url(#SVGID_00000112620338326699511810000006791074693926105003_);}
	.st22{fill:#FF1901;}
	.st23{fill:#FFFFFE;}
	.st24{fill:url(#SVGID_00000026857526759063387470000001951896670805452164_);}
	.st25{fill:url(#SVGID_00000128445119063021230720000006585323887044332696_);}
	.st26{fill:url(#SVGID_00000101073534699836067030000003493919532200068481_);}
	.st27{fill:url(#SVGID_00000034804651188211111200000005269252608528382361_);}
	.st28{fill:url(#SVGID_00000050637173658117853730000004607133826136526263_);}
	.st29{fill:url(#SVGID_00000154412449649009527220000006465876251130498197_);}
	.st30{fill:#7E400D;}
	.st31{fill:url(#SVGID_00000178206437537467969990000017731332348576393104_);}
	.st32{fill:url(#SVGID_00000119085625889928822200000003863582889543434394_);}
	.st33{fill:url(#SVGID_00000072254829245402298790000001023356673315375281_);}
	.st34{fill:#FF0E01;}
	.st35{fill:#4395C5;}
	.st36{fill:#010101;}
	.st37{fill:#231F20;}
</style>
<path d="M948.53,478.22c3.04,28.1,3.88,56.99,2.48,85.86c-2.46,51.25-11.79,102.53-27.74,152.37
	c-15.95,49.83-38.14,97.06-65.92,140.37c-58.89,91.76-139.36,160.65-232.7,199.24c-40.72,16.82-82.31,25.37-123.62,25.37
	c-101.05,0-199.6-59.51-258.15-115.21C129.23,858.13,55.18,686.7,54.22,529.52c-0.57-93.41,25.14-185.21,74.36-265.5
	c50.4-82.23,121.51-145.48,205.64-182.89c2.15-0.96,4.28-1.88,6.4-2.8c50.54-21.48,106-32.82,160.39-32.82
	c110.67,0,218.32,47.2,303.13,132.92c39.67,40.09,72.42,86.49,97.34,137.89C926.73,368.44,942.56,422.91,948.53,478.22z
	 M910.89,562.14c1.29-26.79,0.52-53.56-2.29-79.58C887.99,291.74,726.3,85.79,501.01,85.79c-49.05,0-99.08,10.24-144.69,29.62
	c-1.94,0.83-3.9,1.68-5.85,2.55C196.23,186.57,93.32,351.87,94.39,529.27c0.9,146.77,70.03,306.81,176.12,407.73
	c52.93,50.34,141.27,104.14,230.5,104.14c36.03,0,72.48-7.51,108.31-22.33C779.99,948.29,901.16,764.77,910.89,562.14z"/>
<linearGradient id="SVGID_1_" gradientUnits="userSpaceOnUse" x1="235.1685" y1="192.0282" x2="776.3232" y2="910.1647">
	<stop  offset="0" style="stop-color:#FFFA1E"/>
	<stop  offset="7.988989e-03" style="stop-color:#FFF91E"/>
	<stop  offset="0.449" style="stop-color:#FFCF15"/>
	<stop  offset="0.7946" style="stop-color:#FFB510"/>
	<stop  offset="1" style="stop-color:#FFAB0E"/>
</linearGradient>
<path class="st0" d="M908.59,482.56c2.81,26.02,3.58,52.79,2.29,79.58c-9.72,202.63-130.9,386.15-301.55,456.68
	c-35.83,14.82-72.28,22.33-108.31,22.33c-89.23,0-177.58-53.8-230.5-104.14C164.42,836.08,95.29,676.04,94.39,529.27
	c-1.08-177.41,101.84-342.7,256.08-411.31c1.95-0.86,3.91-1.72,5.85-2.55c45.6-19.38,95.64-29.62,144.69-29.62
	C726.3,85.79,887.99,291.74,908.59,482.56z"/>
<g>
	<g id="XMLID_00000165203101836294741120000015362234024129461179_">
		<g>
			<path d="M1000,305.9v140.37c0,119.86-97.23,217.38-216.75,217.38H678.72c-82.86,0-151.43-62.54-161.25-143.02h23.75v-89.94
				h-23.31c10.66-70.55,71.53-124.79,144.81-124.79H1000z M939.74,446.27v-79.95H662.72c-47.54,0-86.21,38.79-86.21,86.46v47.92
				c0,56.52,45.85,102.52,102.22,102.52h104.52C869.53,603.23,939.74,532.82,939.74,446.27z"/>
			<path class="st7" d="M939.74,366.32v79.95c0,86.55-70.21,156.96-156.5,156.96H678.72c-56.37,0-102.22-45.99-102.22-102.52v-47.92
				c0-47.67,38.67-86.46,86.21-86.46H939.74z M758.13,511.91v-18.3c0-11.98-9.69-21.7-21.64-21.7h-83.86
				c-11.94,0-21.63,9.73-21.63,21.7v18.3c0,11.99,9.69,21.7,21.63,21.7h83.86C748.44,533.61,758.13,523.9,758.13,511.91z"/>
			<path d="M758.13,493.6v18.3c0,11.99-9.69,21.7-21.64,21.7h-83.86c-11.94,0-21.63-9.71-21.63-21.7v-18.3
				c0-11.98,9.69-21.7,21.63-21.7h83.86C748.44,471.9,758.13,481.62,758.13,493.6z"/>
			<path d="M541.22,430.69v89.94h-23.75c-0.8-6.53-1.22-13.17-1.22-19.92v-47.92c0-7.51,0.57-14.88,1.65-22.1H541.22z"/>
			<path d="M482.1,430.69h35.81c-1.09,7.22-1.65,14.58-1.65,22.1v47.92c0,6.74,0.41,13.39,1.22,19.92h-34.93
				c0.8-6.53,1.22-13.17,1.22-19.92v-47.92C483.76,445.27,483.19,437.91,482.1,430.69z"/>
			<path d="M483.76,452.79v47.92c0,6.74-0.41,13.39-1.22,19.92h-31.01v-89.94h30.57C483.19,437.91,483.76,445.27,483.76,452.79z"/>
			<path d="M451.53,520.63h31.01c-9.82,80.48-78.4,143.02-161.26,143.02H216.77C97.25,663.65,0,566.13,0,446.27V305.9h337.28
				c73.27,0,134.16,54.24,144.82,124.79h-30.57V520.63z M423.5,500.71v-47.92c0-47.67-38.68-86.46-86.22-86.46H60.26v79.95
				c0,86.55,70.21,156.96,156.51,156.96h104.51C377.64,603.23,423.5,557.23,423.5,500.71z"/>
			<path class="st7" d="M423.5,452.79v47.92c0,56.52-45.86,102.52-102.23,102.52H216.77c-86.3,0-156.51-70.41-156.51-156.96v-79.95
				h277.03C384.82,366.32,423.5,405.11,423.5,452.79z M369.01,511.91v-18.3c0-11.98-9.69-21.7-21.63-21.7h-83.86
				c-11.96,0-21.64,9.73-21.64,21.7v18.3c0,11.99,9.69,21.7,21.64,21.7h83.86C359.32,533.61,369.01,523.9,369.01,511.91z"/>
			<path d="M369.01,493.6v18.3c0,11.99-9.69,21.7-21.63,21.7h-83.86c-11.96,0-21.64-9.71-21.64-21.7v-18.3
				c0-11.98,9.69-21.7,21.64-21.7h83.86C359.32,471.9,369.01,481.62,369.01,493.6z"/>
		</g>
	</g>
</g>
<path d="M560.63,851.23h-102.8c-25.06,0-45.38-20.32-45.38-45.38v-38.1h191.84v39.83C604.29,831.68,584.74,851.23,560.63,851.23z"/>
<path d="M523.61,1097.15H480.4c-36.38,0-65.87-29.49-65.87-65.87V903.86h171.51v130.87C586.04,1069.2,558.09,1097.15,523.61,1097.15
	z"/>
</svg>
