<?xml version="1.0" encoding="utf-8"?>
<!-- Generator: Adobe Illustrator 26.0.1, SVG Export Plug-In . SVG Version: 6.00 Build 0)  -->
<svg version="1.1" id="Layer_1" xmlns="http://www.w3.org/2000/svg" xmlns:xlink="http://www.w3.org/1999/xlink" x="0px" y="0px"
	 viewBox="0 0 1000 1133" style="enable-background:new 0 0 1000 1133;" xml:space="preserve">
<style type="text/css">
	.st0{fill:url(#SVGID_1_);}
	.st1{fill:url(#SVGID_00000136383662301154853930000000463000670964565948_);}
	.st2{fill:url(#SVGID_00000082356123313869906850000009732412501399979664_);}
	.st3{fill:url(#SVGID_00000073696182557398861880000015002929096212380054_);}
	.st4{fill:url(#SVGID_00000126297486047893660740000015914429784322608315_);}
	.st5{fill:#FFFFFF;}
	.st6{fill:#BEE64E;}
	.st7{fill:#B3F5A4;}
	.st8{fill:url(#SVGID_00000108285015799724694840000012263623655843118215_);}
	.st9{fill:url(#SVGID_00000009590648989688156400000012582190589050517167_);}
	.st10{fill:url(#SVGID_00000129885965292279901270000008393629945577611939_);}
	.st11{fill:url(#SVGID_00000118396860523619926560000017449527874470385843_);}
	.st12{fill:#FF0605;}
	.st13{fill:#FA3306;}
	.st14{fill:url(#SVGID_00000009548966940698851250000013902391457957467273_);}
	.st15{fill:#FF1400;}
	.st16{fill:#FF1602;}
	.st17{fill:url(#SVGID_00000061458795259838106670000010534858492335214477_);}
	.st18{fill:url(#SVGID_00000120538544813698287010000010346918137858902703_);}
	.st19{fill:url(#SVGID_00000085956663828101335660000005607098975626909855_);}
	.st20{fill:url(#SVGID_00000161612887395964722480000015657031312770893970_);}
	.st21{fill:url(#SVGID_00000014632982150317829170000005030091718199656593_);}
	.st22{fill:#FF1901;}
	.st23{fill:#FFFFFE;}
	.st24{fill:url(#SVGID_00000101085429103298322360000002518228040450642343_);}
	.st25{fill:url(#SVGID_00000166654598604768290090000002199186714363160231_);}
	.st26{fill:url(#SVGID_00000106105030314229328350000010632792941870714302_);}
	.st27{fill:url(#SVGID_00000031165765613507377640000009425091156721266851_);}
	.st28{fill:url(#SVGID_00000023998453917439015510000012432160693865581999_);}
	.st29{fill:url(#SVGID_00000167356886370033106310000000388297277877080248_);}
	.st30{fill:#7E400D;}
	.st31{fill:url(#SVGID_00000066493158134301685210000000188152291576898955_);}
	.st32{fill:url(#SVGID_00000053513988731820399980000015300618130301200290_);}
	.st33{fill:url(#SVGID_00000036966679139243843020000004518198332805531828_);}
	.st34{fill:#FF0E01;}
	.st35{fill:#4395C5;}
	.st36{fill:#010101;}
	.st37{fill:#231F20;}
</style>
<path d="M996.51,473.26c3.38,30.74,4.32,62.33,2.76,93.91c-2.74,56.06-13.14,112.14-30.91,166.65
	c-17.77,54.5-42.49,106.15-73.46,153.53c-65.62,100.36-155.28,175.71-259.29,217.91c-45.38,18.4-91.71,27.74-137.75,27.74
	c-112.59,0-222.41-65.09-287.65-126C83.59,888.77,1.08,701.28,0.01,529.37C-0.62,427.21,28.02,326.8,82.87,238.98
	C139.02,149.04,218.26,79.87,312,38.95c2.4-1.05,4.77-2.06,7.13-3.06C375.45,12.4,437.24,0,497.85,0
	c123.32,0,243.27,51.62,337.76,145.37c44.21,43.85,80.7,94.59,108.46,150.82C972.22,353.19,989.86,412.76,996.51,473.26z
	 M954.57,565.04c1.43-29.3,0.58-58.58-2.55-87.04C929.05,269.3,748.89,44.06,497.85,44.06c-54.66,0-110.41,11.2-161.22,32.39
	c-2.16,0.91-4.34,1.84-6.52,2.79C158.24,154.28,43.57,335.07,44.77,529.1c1,160.52,78.04,335.56,196.25,445.95
	c58.98,55.06,157.42,113.9,256.84,113.9c40.15,0,80.76-8.22,120.69-24.43C808.71,987.38,943.73,786.66,954.57,565.04z"/>
<linearGradient id="SVGID_1_" gradientUnits="userSpaceOnUse" x1="205.5622" y1="157.832" x2="800.6796" y2="947.5795">
	<stop  offset="0" style="stop-color:#FFFA1E"/>
	<stop  offset="7.988989e-03" style="stop-color:#FFF91E"/>
	<stop  offset="0.449" style="stop-color:#FFCF15"/>
	<stop  offset="0.7946" style="stop-color:#FFB510"/>
	<stop  offset="1" style="stop-color:#FFAB0E"/>
</linearGradient>
<path class="st0" d="M952.01,478c3.13,28.46,3.99,57.74,2.55,87.04c-10.83,221.62-145.86,422.34-336.01,499.48
	c-39.93,16.21-80.54,24.43-120.69,24.43c-99.43,0-197.87-58.84-256.84-113.9C122.81,864.65,45.77,689.62,44.77,529.1
	c-1.2-194.03,113.47-374.82,285.35-449.86c2.17-0.95,4.36-1.88,6.52-2.79c50.81-21.2,106.56-32.39,161.22-32.39
	C748.89,44.06,929.05,269.3,952.01,478z"/>
<path d="M610.66,736.48H380.53c-28.34,0-51.32,22.98-51.32,51.32v22.13h338.12v-16.77C667.34,761.86,641.96,736.48,610.66,736.48z"
	/>
<path d="M360.81,809.93c0,0-46.38,21.84-63.86,55.58c-17.48,33.75-49.74,9.26-27.56-15.22c22.18-24.48,54.14-83.9,94.63-105.47
	s43.85,32.68,43.85,32.68L360.81,809.93z"/>
<path d="M629.56,808.96c0,0,46.38,21.84,63.86,55.58c17.48,33.75,49.74,9.26,27.56-15.22s-54.14-83.9-94.63-105.47
	c-40.49-21.57-43.85,32.68-43.85,32.68L629.56,808.96z"/>
<g id="XMLID_00000091700328530986957140000018314731278004762256_">
	<g>
		<path d="M849.02,490.78v106.09H799V490.78c0-48.97-40.47-88.81-90.21-88.81h-42.45c-49.75,0-90.23,39.85-90.23,88.81v106.09
			h-50.02V490.78c0-76.13,62.91-138.05,140.25-138.05h42.45C786.11,352.72,849.02,414.65,849.02,490.78z"/>
		<path class="st5" d="M799,490.78v106.09h-84.28V490h-54.1v106.86H576.1V490.78c0-48.97,40.48-88.81,90.23-88.81h42.45
			C758.53,401.96,799,441.81,799,490.78z"/>
		<rect x="660.61" y="490" width="54.1" height="106.86"/>
		<path d="M450.74,498.71v106.1h-50.02v-106.1c0-48.95-40.47-88.8-90.21-88.8h-42.47c-49.75,0-90.21,39.85-90.21,88.8v106.1H127.8
			v-106.1c0-76.11,62.91-138.04,140.24-138.04h42.47C387.83,360.67,450.74,422.59,450.74,498.71z"/>
		<path class="st5" d="M400.72,498.71v106.1h-84.28V497.94h-54.12v106.86h-84.5v-106.1c0-48.95,40.47-88.8,90.21-88.8h42.47
			C360.25,409.91,400.72,449.75,400.72,498.71z"/>
		<rect x="262.32" y="497.94" width="54.12" height="106.86"/>
	</g>
</g>
<rect x="177.82" y="551.37" class="st35" width="222.89" height="53.43"/>
<rect x="576.11" y="543.43" class="st35" width="222.89" height="53.43"/>
</svg>
