<?xml version="1.0" encoding="utf-8"?>
<!-- Generator: Adobe Illustrator 26.0.1, SVG Export Plug-In . SVG Version: 6.00 Build 0)  -->
<svg version="1.1" id="Layer_1" xmlns="http://www.w3.org/2000/svg" xmlns:xlink="http://www.w3.org/1999/xlink" x="0px" y="0px"
	 viewBox="0 0 1000 1133" style="enable-background:new 0 0 1000 1133;" xml:space="preserve">
<style type="text/css">
	.st0{fill:url(#SVGID_1_);}
	.st1{fill:url(#SVGID_00000158714860762248057510000009272804535468428985_);}
	.st2{fill:url(#SVGID_00000132791460431481596340000004501986365430312351_);}
	.st3{fill:url(#SVGID_00000126314380529394439860000010708182418397951121_);}
	.st4{fill:url(#SVGID_00000111893440012649412170000005628634784090176141_);}
	.st5{fill:#FFFFFF;}
	.st6{fill:#BEE64E;}
	.st7{fill:#B3F5A4;}
	.st8{fill:url(#SVGID_00000121242941921345664420000008723907595700919218_);}
	.st9{fill:url(#SVGID_00000001651806176769239910000003890645110475909820_);}
	.st10{fill:url(#SVGID_00000139987309017351759950000004569724488604758964_);}
	.st11{fill:url(#SVGID_00000047744495141547429990000013833966163758550937_);}
	.st12{fill:#FF0605;}
	.st13{fill:#FA3306;}
	.st14{fill:url(#SVGID_00000078003146594327133670000012298334413403158687_);}
	.st15{fill:#FF1400;}
	.st16{fill:#FF1602;}
	.st17{fill:url(#SVGID_00000078018423663001091850000006268071886374877341_);}
	.st18{fill:url(#SVGID_00000101800200079645073330000003192018806429548422_);}
	.st19{fill:url(#SVGID_00000003821964848942181930000011568308920273336985_);}
	.st20{fill:url(#SVGID_00000087377054633108944890000013462044850354782378_);}
	.st21{fill:url(#SVGID_00000110436843431795244720000002746220741769716124_);}
	.st22{fill:#FF1901;}
	.st23{fill:#FFFFFE;}
	.st24{fill:url(#SVGID_00000091729611118731431340000013452981767910848673_);}
	.st25{fill:url(#SVGID_00000080927131197816469260000017381147927201527690_);}
	.st26{fill:url(#SVGID_00000082360596157310505420000006877855003447746485_);}
	.st27{fill:url(#SVGID_00000173139101140897242180000015407322935804272514_);}
	.st28{fill:url(#SVGID_00000150825240060617735130000002840444273126321074_);}
	.st29{fill:url(#SVGID_00000003825370108659860550000016620412802767621558_);}
	.st30{fill:#7E400D;}
	.st31{fill:url(#SVGID_00000098905116334221145670000014568178578143548055_);}
	.st32{fill:url(#SVGID_00000106111390989290608970000011292766295996101557_);}
	.st33{fill:url(#SVGID_00000119817576208294162360000016505347439827505808_);}
	.st34{fill:#FF0E01;}
	.st35{fill:#4395C5;}
	.st36{fill:#010101;}
	.st37{fill:#231F20;}
</style>
<g>
	<path d="M996.51,473.27c3.38,30.72,4.32,62.32,2.76,93.89c-2.74,56.07-13.14,112.14-30.91,166.67
		c-17.77,54.49-42.49,106.15-73.46,153.51c-65.62,100.36-155.28,175.71-259.29,217.93c-45.38,18.39-91.71,27.73-137.75,27.73
		c-112.59,0-222.41-65.09-287.65-125.99C83.59,888.77,1.08,701.28,0.01,529.36c-0.63-102.15,28.01-202.57,82.85-290.39
		C139.02,149.04,218.26,79.86,312,38.95c2.4-1.05,4.77-2.07,7.13-3.07C375.45,12.4,437.24,0,497.85,0
		c123.32,0,243.27,51.62,337.76,145.38c44.21,43.84,80.7,94.59,108.46,150.81C972.22,353.2,989.86,412.75,996.51,473.27z
		 M954.57,565.05c1.43-29.31,0.58-58.6-2.55-87.05C929.05,269.29,748.89,44.06,497.85,44.06c-54.66,0-110.41,11.18-161.22,32.4
		c-2.16,0.89-4.34,1.84-6.52,2.79C158.24,154.28,43.57,335.06,44.77,529.1c1,160.51,78.04,335.55,196.25,445.94
		c58.98,55.07,157.42,113.9,256.84,113.9c40.15,0,80.76-8.22,120.69-24.41C808.71,987.38,943.73,786.67,954.57,565.05z"/>
	<linearGradient id="SVGID_1_" gradientUnits="userSpaceOnUse" x1="205.5641" y1="157.8308" x2="800.6844" y2="947.5821">
		<stop  offset="0" style="stop-color:#FFFA1E"/>
		<stop  offset="7.988989e-03" style="stop-color:#FFF91E"/>
		<stop  offset="0.449" style="stop-color:#FFCF15"/>
		<stop  offset="0.7946" style="stop-color:#FFB510"/>
		<stop  offset="1" style="stop-color:#FFAB0E"/>
	</linearGradient>
	<path class="st0" d="M952.01,478c3.13,28.46,3.99,57.74,2.55,87.05c-10.83,221.62-145.86,422.33-336.01,499.48
		c-39.93,16.2-80.54,24.41-120.69,24.41c-99.43,0-197.87-58.83-256.84-113.9C122.81,864.65,45.77,689.61,44.77,529.1
		c-1.2-194.05,113.47-374.82,285.35-449.86c2.17-0.95,4.36-1.89,6.52-2.79c50.81-21.21,106.56-32.4,161.22-32.4
		C748.89,44.06,929.05,269.29,952.01,478z"/>
	<ellipse cx="661.76" cy="449.9" rx="67.81" ry="56.33"/>
	<path d="M633.02,208.2c30.45,3.42,60.4,13.08,86.64,29.05c26.11,15.81,48.34,38.05,63.86,63.95c13.35,24.03-19.8,45.02-36.49,23.19
		c-13.44-19.11-31.38-34.56-51.94-45.06c-20.48-10.49-43.43-16.1-66.6-17.01c-15.24-0.6-27.09-13.24-26.48-28.24
		C602.57,218.27,617.09,206.18,633.02,208.2L633.02,208.2z"/>
	<ellipse cx="315.63" cy="449.9" rx="67.81" ry="56.33"/>
	<path d="M348.9,262.32c-46.68,1.52-91.85,23.61-118.5,62c-16.71,21.95-49.83,0.93-36.53-23.12c15.52-25.9,37.75-48.14,63.86-63.95
		c26.32-16.02,56.38-25.69,86.93-29.09c15.15-1.7,28.83,9.01,30.56,23.92C377.11,247.69,364.84,261.75,348.9,262.32L348.9,262.32z"
		/>
	<g id="XMLID_00000099624665520768805680000011545691050096066195_">
		<g>
			<path d="M439.18,892.31C317.02,875.67,221.19,765.69,182.5,714.27c-8.2-10.9-0.43-26.47,13.19-26.51l583.51-1.8
				c13.53-0.05,21.4,15.26,13.49,26.24c-10.27,14.27-23.89,31.84-37.93,46.13C726,787.62,599.49,914.15,439.18,892.31z
				 M668.39,795.63v-19.02c0-11.64-9.43-21.07-21.06-21.07H327.81c-11.62,0-21.06,9.43-21.06,21.07v19.02
				c0,11.62,9.44,21.06,21.06,21.06h319.52C658.97,816.69,668.39,807.25,668.39,795.63z"/>
			<path class="st5" d="M668.39,776.61v19.02c0,11.62-9.43,21.06-21.06,21.06H327.81c-11.62,0-21.06-9.43-21.06-21.06v-19.02
				c0-11.64,9.44-21.07,21.06-21.07h319.52C658.97,755.54,668.39,764.97,668.39,776.61z"/>
		</g>
	</g>
</g>
</svg>
