<?xml version="1.0" encoding="utf-8"?>
<!-- Generator: Adobe Illustrator 26.0.1, SVG Export Plug-In . SVG Version: 6.00 Build 0)  -->
<svg version="1.1" id="Layer_1" xmlns="http://www.w3.org/2000/svg" xmlns:xlink="http://www.w3.org/1999/xlink" x="0px" y="0px"
	 viewBox="0 0 1000 1133" style="enable-background:new 0 0 1000 1133;" xml:space="preserve">
<style type="text/css">
	.st0{fill:url(#SVGID_1_);}
	.st1{fill:url(#SVGID_00000174572171730039828080000015121124587455427211_);}
	.st2{fill:url(#SVGID_00000064318432719986222750000014747740942536365194_);}
	.st3{fill:url(#SVGID_00000175302398205017040880000016313074345838619012_);}
	.st4{fill:url(#SVGID_00000007389888621013471430000002827730406130537401_);}
	.st5{fill:#FFFFFF;}
	.st6{fill:#BEE64E;}
	.st7{fill:#B3F5A4;}
	.st8{fill:url(#SVGID_00000149360355924300766640000007426457742954522280_);}
	.st9{fill:url(#SVGID_00000005986795818490903670000003216389563581467558_);}
	.st10{fill:url(#SVGID_00000175291436005753210560000014109293655573236376_);}
	.st11{fill:url(#SVGID_00000058584818632394366300000016998463031901412484_);}
	.st12{fill:#FF0605;}
	.st13{fill:#FA3306;}
	.st14{fill:url(#SVGID_00000172404235029550707940000013864993357807107764_);}
	.st15{fill:#FF1400;}
	.st16{fill:#FF1602;}
	.st17{fill:url(#SVGID_00000162351611146193143730000010019451721875201679_);}
	.st18{fill:url(#SVGID_00000026123376227416644880000008130251673167926660_);}
	.st19{fill:url(#SVGID_00000048502737819988311920000008244352775770106520_);}
	.st20{fill:url(#SVGID_00000161613632075445085860000015569430435137055900_);}
	.st21{fill:url(#SVGID_00000174581264252449476230000009712717031803968646_);}
	.st22{fill:#FF1901;}
	.st23{fill:#FFFFFE;}
	.st24{fill:url(#SVGID_00000072274569245629792740000008341752530861487527_);}
	.st25{fill:url(#SVGID_00000170974152365892311880000014052533862617641405_);}
	.st26{fill:url(#SVGID_00000092420896068488040200000003757271397632621202_);}
	.st27{fill:url(#SVGID_00000054257578381575499420000008734446001055322535_);}
	.st28{fill:url(#SVGID_00000050653818228542480440000015027790550076584111_);}
	.st29{fill:url(#SVGID_00000153700759049133741520000006263476908377170355_);}
	.st30{fill:#7E400D;}
	.st31{fill:url(#SVGID_00000170263402734288927730000018281489980149235334_);}
	.st32{fill:url(#SVGID_00000134236783805413044840000007788293922859561611_);}
	.st33{fill:url(#SVGID_00000064341406440682247800000001470988038263040660_);}
	.st34{fill:#FF0E01;}
	.st35{fill:#4395C5;}
	.st36{fill:#010101;}
	.st37{fill:#231F20;}
</style>
<path d="M996.51,473.26c3.38,30.74,4.32,62.33,2.76,93.91c-2.74,56.06-13.14,112.14-30.91,166.65
	c-17.77,54.5-42.49,106.15-73.46,153.53c-65.62,100.36-155.28,175.71-259.29,217.91c-45.38,18.4-91.71,27.74-137.75,27.74
	c-112.59,0-222.41-65.09-287.65-126C83.59,888.77,1.08,701.28,0.01,529.37C-0.62,427.21,28.02,326.8,82.87,238.98
	C139.02,149.04,218.26,79.87,312,38.95c2.4-1.05,4.77-2.06,7.13-3.06C375.45,12.4,437.24,0,497.85,0
	c123.32,0,243.27,51.62,337.76,145.37c44.21,43.85,80.7,94.59,108.46,150.82C972.22,353.19,989.86,412.76,996.51,473.26z
	 M954.57,565.04c1.43-29.3,0.58-58.58-2.55-87.04C929.05,269.3,748.89,44.06,497.85,44.06c-54.66,0-110.41,11.2-161.22,32.39
	c-2.16,0.91-4.34,1.84-6.52,2.79C158.24,154.28,43.57,335.07,44.77,529.1c1,160.52,78.04,335.56,196.25,445.95
	c58.98,55.06,157.42,113.9,256.84,113.9c40.15,0,80.76-8.22,120.69-24.43C808.71,987.38,943.73,786.66,954.57,565.04z"/>
<linearGradient id="SVGID_1_" gradientUnits="userSpaceOnUse" x1="205.562" y1="157.832" x2="800.6794" y2="947.5795">
	<stop  offset="0" style="stop-color:#FFFA1E"/>
	<stop  offset="7.988989e-03" style="stop-color:#FFF91E"/>
	<stop  offset="0.449" style="stop-color:#FFCF15"/>
	<stop  offset="0.7946" style="stop-color:#FFB510"/>
	<stop  offset="1" style="stop-color:#FFAB0E"/>
</linearGradient>
<path class="st0" d="M952.01,478c3.13,28.46,3.99,57.74,2.55,87.04c-10.83,221.62-145.86,422.34-336.01,499.48
	c-39.93,16.21-80.54,24.43-120.69,24.43c-99.43,0-197.87-58.84-256.84-113.9C122.81,864.65,45.77,689.62,44.77,529.1
	c-1.2-194.03,113.47-374.82,285.35-449.86c2.17-0.95,4.36-1.88,6.52-2.79c50.81-21.2,106.56-32.39,161.22-32.39
	C748.89,44.06,929.05,269.3,952.01,478z"/>
<path d="M611.52,742.44H381.4c-28.34,0-51.32,22.98-51.32,51.32v22.13H668.2v-16.77C668.2,767.82,642.82,742.44,611.52,742.44z"/>
<path d="M361.67,815.89c0,0-46.38,21.84-63.86,55.58c-17.48,33.75-49.74,9.26-27.56-15.22c22.18-24.48,54.14-83.9,94.63-105.47
	s43.85,32.68,43.85,32.68L361.67,815.89z"/>
<path d="M630.42,814.92c0,0,46.38,21.84,63.86,55.58c17.48,33.75,49.74,9.26,27.56-15.22s-54.14-83.9-94.63-105.47
	c-40.49-21.57-43.85,32.68-43.85,32.68L630.42,814.92z"/>
<g id="XMLID_00000040558786382609331830000017892703662995798974_">
	<g>
		<path d="M849.88,496.74v106.09h-50.02V496.74c0-48.97-40.47-88.81-90.21-88.81h-42.45c-49.75,0-90.23,39.85-90.23,88.81v106.09
			h-50.02V496.74c0-76.13,62.91-138.05,140.25-138.05h42.45C786.97,358.68,849.88,420.61,849.88,496.74z"/>
		<path class="st5" d="M799.86,496.74v106.09h-84.28V495.96h-54.1v106.86h-84.51V496.74c0-48.97,40.48-88.81,90.23-88.81h42.45
			C759.39,407.92,799.86,447.77,799.86,496.74z"/>
		<rect x="661.48" y="495.96" width="54.1" height="106.86"/>
		<path d="M451.6,504.67v106.1h-50.02v-106.1c0-48.95-40.47-88.8-90.21-88.8H268.9c-49.75,0-90.21,39.85-90.21,88.8v106.1h-50.02
			v-106.1c0-76.11,62.91-138.04,140.24-138.04h42.47C388.69,366.63,451.6,428.55,451.6,504.67z"/>
		<path class="st5" d="M401.58,504.67v106.1H317.3V503.9h-54.12v106.86h-84.5v-106.1c0-48.95,40.47-88.8,90.21-88.8h42.47
			C361.11,415.87,401.58,455.71,401.58,504.67z"/>
		<rect x="263.18" y="503.9" width="54.12" height="106.86"/>
	</g>
</g>
</svg>
