<?xml version="1.0" encoding="utf-8"?>
<!-- Generator: Adobe Illustrator 26.0.1, SVG Export Plug-In . SVG Version: 6.00 Build 0)  -->
<svg version="1.1" id="Layer_1" xmlns="http://www.w3.org/2000/svg" xmlns:xlink="http://www.w3.org/1999/xlink" x="0px" y="0px"
	 viewBox="0 0 1000 1133" style="enable-background:new 0 0 1000 1133;" xml:space="preserve">
<style type="text/css">
	.st0{fill:url(#SVGID_1_);}
	.st1{fill:url(#SVGID_00000145768285618454579090000016251689183428212355_);}
	.st2{fill:url(#SVGID_00000174562355880164025040000014387576700836143036_);}
	.st3{fill:url(#SVGID_00000064329949806700381080000001575475285056560518_);}
	.st4{fill:url(#SVGID_00000051368444498063015480000011517164250883783082_);}
	.st5{fill:#FFFFFF;}
	.st6{fill:#BEE64E;}
	.st7{fill:#B3F5A4;}
	.st8{fill:url(#SVGID_00000105424331860085715850000008874492918302254749_);}
	.st9{fill:url(#SVGID_00000173877473447410812170000012662760072871262907_);}
	.st10{fill:url(#SVGID_00000173149109178459502030000010334378025882060216_);}
	.st11{fill:url(#SVGID_00000060010224655746864080000005863425743172909240_);}
	.st12{fill:#FF0605;}
	.st13{fill:#FA3306;}
	.st14{fill:url(#SVGID_00000010281630647136053780000003660475550897392827_);}
	.st15{fill:#FF1400;}
	.st16{fill:#FF1602;}
	.st17{fill:url(#SVGID_00000033334462268431267950000004621780172183477935_);}
	.st18{fill:url(#SVGID_00000121261846435159776560000017305631847245979014_);}
	.st19{fill:url(#SVGID_00000077322854221404940040000016629273602170610053_);}
	.st20{fill:url(#SVGID_00000175303953154366408270000008169122769181647544_);}
	.st21{fill:url(#SVGID_00000108307563898927836380000004508468497875586977_);}
	.st22{fill:#FF1901;}
	.st23{fill:#FFFFFE;}
	.st24{fill:url(#SVGID_00000154400301982594030920000004600322900106374288_);}
	.st25{fill:url(#SVGID_00000177459908558544099250000004345270828356782518_);}
	.st26{fill:url(#SVGID_00000134940007756540432910000012298796511313230224_);}
	.st27{fill:url(#SVGID_00000041278435754886035170000001144685124960676746_);}
	.st28{fill:url(#SVGID_00000155145847836034069860000007496420779113761425_);}
	.st29{fill:url(#SVGID_00000034770892805574337640000010950872887910937495_);}
	.st30{fill:#7E400D;}
	.st31{fill:url(#SVGID_00000107582469728117569030000014657577930397634482_);}
	.st32{fill:url(#SVGID_00000119798542677857430380000008653001555615775374_);}
	.st33{fill:url(#SVGID_00000161623187411486709220000008331854903349255585_);}
	.st34{fill:#FF0E01;}
	.st35{fill:#4395C5;}
	.st36{fill:#010101;}
	.st37{fill:#231F20;}
</style>
<g>
	<path d="M996.51,473.26c3.38,30.74,4.32,62.33,2.76,93.91c-2.74,56.06-13.14,112.14-30.91,166.65
		c-17.77,54.5-42.49,106.15-73.46,153.53c-65.62,100.36-155.28,175.71-259.29,217.91c-45.38,18.4-91.71,27.74-137.75,27.74
		c-112.59,0-222.41-65.09-287.65-126C83.59,888.77,1.08,701.28,0.01,529.37C-0.62,427.21,28.02,326.8,82.87,238.98
		C139.02,149.04,218.26,79.87,312,38.95c2.4-1.05,4.77-2.06,7.13-3.06C375.45,12.4,437.24,0,497.85,0
		c123.32,0,243.27,51.62,337.76,145.37c44.21,43.85,80.7,94.59,108.46,150.82C972.22,353.19,989.86,412.76,996.51,473.26z
		 M954.57,565.04c1.43-29.3,0.58-58.58-2.55-87.04C929.05,269.3,748.89,44.06,497.85,44.06c-54.66,0-110.41,11.2-161.22,32.39
		c-2.16,0.91-4.34,1.84-6.52,2.79C158.24,154.28,43.57,335.07,44.77,529.1c1,160.52,78.04,335.56,196.25,445.95
		c58.98,55.06,157.42,113.9,256.84,113.9c40.15,0,80.76-8.22,120.69-24.43C808.71,987.38,943.73,786.66,954.57,565.04z"/>
	<linearGradient id="SVGID_1_" gradientUnits="userSpaceOnUse" x1="205.562" y1="157.832" x2="800.6794" y2="947.5795">
		<stop  offset="0" style="stop-color:#FFFA1E"/>
		<stop  offset="7.988989e-03" style="stop-color:#FFF91E"/>
		<stop  offset="0.449" style="stop-color:#FFCF15"/>
		<stop  offset="0.7946" style="stop-color:#FFB510"/>
		<stop  offset="1" style="stop-color:#FFAB0E"/>
	</linearGradient>
	<path class="st0" d="M952.01,478c3.13,28.46,3.99,57.74,2.55,87.04c-10.83,221.62-145.86,422.34-336.01,499.48
		c-39.93,16.21-80.54,24.43-120.69,24.43c-99.43,0-197.87-58.84-256.84-113.9C122.81,864.65,45.77,689.62,44.77,529.1
		c-1.2-194.03,113.47-374.82,285.35-449.86c2.17-0.95,4.36-1.88,6.52-2.79c50.81-21.2,106.56-32.39,161.22-32.39
		C748.89,44.06,929.05,269.3,952.01,478z"/>
	<g id="XMLID_00000078032345334876314690000014412020653037437865_">
		<g>
			<g id="XMLID_00000055670997916822839440000005965270418556440764_">
				<g>
					<path d="M839.77,391.76v95.03c0,59.18-48.92,107.34-109.05,107.34h-70.09c-72.46,0-131.4-58.03-131.4-129.35v-53.44
						c0-72.5,59.94-131.48,133.59-131.48h63.28C788.78,279.87,839.77,330.06,839.77,391.76z M835.76,477.86
						c0-37.07-19.5-67.8-44.69-72.6v-13.49c0-35.27-29.15-63.95-64.96-63.95h-63.28c-46.8,0-84.88,37.47-84.88,83.54v53.44
						c0,44.89,37.11,81.4,82.7,81.4h70.09c9.45,0,18.39-2.15,26.37-5.99c7.87,6.92,17.15,10.92,27.07,10.92
						C812.6,551.13,835.76,518.26,835.76,477.86z"/>
					<path d="M791.07,405.25c25.2,4.81,44.69,35.53,44.69,72.6c0,40.4-23.16,73.28-51.6,73.28c-9.91,0-19.19-4-27.07-10.92
						c0.04-0.01,0.09-0.04,0.13-0.06c7.83,6.87,17.06,10.83,26.93,10.83c28.41,0,51.43-32.74,51.43-73.12
						c0-37.05-19.38-67.65-44.52-72.45V405.25z"/>
					<path d="M791.07,405.41c25.14,4.79,44.52,35.4,44.52,72.45c0,40.38-23.02,73.12-51.43,73.12c-9.87,0-19.1-3.97-26.93-10.83
						c0.05-0.01,0.12-0.05,0.17-0.08c7.79,6.82,16.96,10.74,26.76,10.74c28.28,0,51.27-32.73,51.27-72.95
						c0-36.89-19.34-67.47-44.36-72.28V405.41z"/>
					<path d="M791.07,405.58c25.02,4.81,44.36,35.39,44.36,72.28c0,40.22-23,72.95-51.27,72.95c-9.81,0-18.97-3.93-26.76-10.74
						c19.93-9.71,33.67-29.95,33.67-53.27V405.58z"/>
					<path d="M791.07,405.58v81.22c0,23.32-13.74,43.56-33.67,53.27c-14.68-12.85-24.49-35.93-24.49-62.21
						c0-40.22,22.98-72.94,51.25-72.94C786.5,404.92,788.8,405.14,791.07,405.58z"/>
					<path d="M791.07,405.41v0.17c-2.26-0.44-4.57-0.66-6.91-0.66c-28.26,0-51.25,32.72-51.25,72.94c0,26.28,9.81,49.36,24.49,62.21
						c-0.05,0.03-0.12,0.06-0.17,0.08c-14.69-12.87-24.49-35.96-24.49-62.29c0-40.38,23.02-73.11,51.42-73.11
						C786.5,404.75,788.8,404.97,791.07,405.41z"/>
					<path d="M791.07,405.25v0.16c-2.26-0.44-4.57-0.66-6.91-0.66c-28.4,0-51.42,32.73-51.42,73.11c0,26.33,9.79,49.42,24.49,62.29
						c-0.04,0.03-0.09,0.05-0.13,0.06c-14.7-12.93-24.51-36.05-24.51-62.35c0-40.4,23.14-73.26,51.58-73.26
						C786.5,404.59,788.8,404.81,791.07,405.25z"/>
					<path class="st5" d="M791.07,391.76v13.49c-2.26-0.44-4.57-0.66-6.91-0.66c-28.43,0-51.58,32.86-51.58,73.26
						c0,26.3,9.81,49.42,24.51,62.35c-7.98,3.84-16.92,5.99-26.37,5.99h-70.09c-45.59,0-82.7-36.52-82.7-81.4v-53.44
						c0-46.07,38.08-83.54,84.88-83.54h63.28C761.92,327.82,791.07,356.49,791.07,391.76z"/>
					<path d="M429.9,389.03v97.77c0,59.18-48.92,107.34-109.05,107.34h-70.09c-72.46,0-131.4-58.03-131.4-129.35v-53.44
						c0-72.5,59.94-131.48,133.59-131.48h66.04C380.15,279.87,429.9,328.84,429.9,389.03z M425.88,477.86
						c0-37.07-19.5-67.8-44.69-72.6v-16.22c0-33.76-27.91-61.21-62.2-61.21h-66.04c-46.8,0-84.88,37.47-84.88,83.54v53.44
						c0,44.89,37.1,81.4,82.7,81.4h70.09c9.45,0,18.39-2.15,26.37-5.99c7.87,6.92,17.15,10.92,27.07,10.92
						C402.72,551.13,425.88,518.26,425.88,477.86z"/>
					<path d="M381.19,405.25c25.2,4.81,44.69,35.53,44.69,72.6c0,40.4-23.16,73.28-51.6,73.28c-9.91,0-19.19-4-27.07-10.92
						c0.04-0.01,0.09-0.04,0.13-0.06c7.83,6.87,17.06,10.83,26.93,10.83c28.41,0,51.43-32.74,51.43-73.12
						c0-37.05-19.38-67.65-44.52-72.45V405.25z"/>
					<path d="M381.19,405.41c25.14,4.79,44.52,35.4,44.52,72.45c0,40.38-23.02,73.12-51.43,73.12c-9.87,0-19.1-3.97-26.93-10.83
						c0.05-0.01,0.12-0.05,0.17-0.08c7.79,6.82,16.96,10.74,26.76,10.74c28.28,0,51.27-32.73,51.27-72.95
						c0-36.89-19.34-67.47-44.36-72.28V405.41z"/>
					<path d="M381.19,405.58c25.02,4.81,44.36,35.39,44.36,72.28c0,40.22-23,72.95-51.27,72.95c-9.81,0-18.97-3.93-26.76-10.74
						c19.93-9.71,33.67-29.95,33.67-53.27V405.58z"/>
					<path d="M381.19,405.58v81.22c0,23.32-13.74,43.56-33.67,53.27c-14.68-12.85-24.49-35.93-24.49-62.21
						c0-40.22,22.98-72.94,51.25-72.94C376.62,404.92,378.92,405.14,381.19,405.58z"/>
					<path d="M381.19,405.41v0.17c-2.26-0.44-4.57-0.66-6.91-0.66c-28.26,0-51.25,32.72-51.25,72.94c0,26.28,9.81,49.36,24.49,62.21
						c-0.05,0.03-0.12,0.06-0.17,0.08c-14.69-12.87-24.49-35.96-24.49-62.29c0-40.38,23.02-73.11,51.42-73.11
						C376.62,404.75,378.92,404.97,381.19,405.41z"/>
					<path d="M381.19,405.25v0.16c-2.26-0.44-4.57-0.66-6.91-0.66c-28.39,0-51.42,32.73-51.42,73.11c0,26.33,9.79,49.42,24.49,62.29
						c-0.04,0.03-0.09,0.05-0.13,0.06c-14.7-12.93-24.51-36.05-24.51-62.35c0-40.4,23.13-73.26,51.58-73.26
						C376.62,404.59,378.92,404.81,381.19,405.25z"/>
					<path class="st5" d="M381.19,389.03v16.22c-2.26-0.44-4.57-0.66-6.91-0.66c-28.45,0-51.58,32.86-51.58,73.26
						c0,26.3,9.81,49.42,24.51,62.35c-7.98,3.84-16.92,5.99-26.37,5.99h-70.09c-45.6,0-82.7-36.52-82.7-81.4v-53.44
						c0-46.07,38.08-83.54,84.88-83.54h66.04C353.28,327.82,381.19,355.27,381.19,389.03z"/>
				</g>
			</g>
		</g>
	</g>
	<g>
		<path d="M338.66,892.88c-6.4,0-12.8-2.47-17.58-7.38c-9.31-9.55-8.99-24.72,0.71-33.89c1.06-1,26.22-24.7,56.25-47.66
			c60.42-46.2,86.14-47.58,101.8-43.61c18.84,4.77,40.06,20.54,64.63,38.8c13.74,10.21,27.95,20.78,40.53,28.27
			c13.71,8.16,19.87,9.27,21.59,9.4c21.25-10.42,68.12-52.07,93.09-76.29c9.58-9.29,25-9.18,34.44,0.25
			c9.44,9.43,9.33,24.61-0.25,33.9c-7.32,7.1-72.55,69.85-107.59,86.02c-6.24,2.88-12.68,4.17-19.29,4.17
			c-28.01,0-59.21-23.19-91.87-47.46c-16.57-12.32-37.1-27.58-46.79-30.46c-2.35,0.18-18.96,2.72-63.39,37.16
			c-26.66,20.67-49.2,41.89-49.43,42.11C350.79,890.67,344.72,892.88,338.66,892.88z"/>
	</g>
</g>
</svg>
