<?xml version="1.0" encoding="utf-8"?>
<!-- Generator: Adobe Illustrator 26.0.1, SVG Export Plug-In . SVG Version: 6.00 Build 0)  -->
<svg version="1.1" id="Layer_1" xmlns="http://www.w3.org/2000/svg" xmlns:xlink="http://www.w3.org/1999/xlink" x="0px" y="0px"
	 viewBox="0 120 1000 900" style="enable-background:new 0 0 1000 1133;" xml:space="preserve">
<style type="text/css">
	.st0{fill:url(#SVGID_1_);}
	.st1{fill:url(#SVGID_00000004514417416873500530000008155898453415023256_);}
	.st2{fill:url(#SVGID_00000052823558302581056220000015697953247486065052_);}
	.st3{fill:url(#SVGID_00000073701316484752712780000012401461057463953556_);}
	.st4{fill:url(#SVGID_00000023979500897256820190000012879620427138960524_);}
	.st5{fill:#FFFFFF;}
	.st6{fill:#BEE64E;}
	.st7{fill:#B3F5A4;}
	.st8{fill:url(#SVGID_00000166650444920038461660000003137630209723492794_);}
	.st9{fill:url(#SVGID_00000155837332813577607490000009410416088476886448_);}
	.st10{fill:url(#SVGID_00000033341141769261784990000017609673302851141003_);}
	.st11{fill:url(#SVGID_00000092444197095440786640000001721419391306961841_);}
	.st12{fill:#FF0605;}
	.st13{fill:#FA3306;}
	.st14{fill:url(#SVGID_00000180360075547883667010000015281757349323738547_);}
	.st15{fill:#FF1400;}
	.st16{fill:#FF1602;}
	.st17{fill:url(#SVGID_00000142138932236540171380000000529259292645199533_);}
	.st18{fill:url(#SVGID_00000054947592513325563320000016457029825877571733_);}
	.st19{fill:url(#SVGID_00000099661291628717151330000007193848052110080641_);}
	.st20{fill:url(#SVGID_00000125570709610159187020000006806915078424928189_);}
	.st21{fill:url(#SVGID_00000096054135735802571710000016810384569341605023_);}
	.st22{fill:#FF1901;}
	.st23{fill:#FFFFFE;}
	.st24{fill:url(#SVGID_00000069372437483851721370000008627306707223575178_);}
	.st25{fill:url(#SVGID_00000003093923143929162290000010197643436064742799_);}
	.st26{fill:url(#SVGID_00000143588738031662810640000008623585406843716779_);}
	.st27{fill:url(#SVGID_00000150805404289267390240000009802820789710319791_);}
	.st28{fill:url(#SVGID_00000163782088798557754170000009322964369205812880_);}
	.st29{fill:url(#SVGID_00000065771790015607675730000009324698147339594659_);}
	.st30{fill:#7E400D;}
	.st31{fill:url(#SVGID_00000139273941322370671710000013317887959430366876_);}
	.st32{fill:url(#SVGID_00000052797709059509835790000005070959820463696062_);}
	.st33{fill:url(#SVGID_00000093875728203304536700000006957687175608351111_);}
	.st34{fill:#FF0E01;}
	.st35{fill:#4395C5;}
	.st36{fill:#010101;}
	.st37{fill:#231F20;}
</style>
<path d="M916.97,487.36c2.89,26.64,3.68,54.03,2.36,81.41c-2.34,48.59-11.21,97.21-26.38,144.47
	c-15.16,47.25-36.26,92.02-62.68,133.09c-56,87-132.51,152.32-221.26,188.91c-38.72,15.95-78.26,24.05-117.54,24.05
	c-96.08,0-189.78-56.42-245.45-109.23C137.96,847.56,67.56,685.03,66.65,536c-0.54-88.56,23.9-175.61,70.7-251.73
	c47.92-77.97,115.53-137.93,195.52-173.4c2.04-0.91,4.07-1.79,6.09-2.65c48.06-20.37,100.78-31.12,152.5-31.12
	c105.23,0,207.59,44.75,288.22,126.02c37.72,38.01,68.86,82,92.55,130.74C896.24,383.27,911.29,434.91,916.97,487.36z
	 M881.18,566.92c1.22-25.4,0.49-50.78-2.18-75.45c-19.59-180.92-173.33-376.18-387.54-376.18c-46.64,0-94.21,9.71-137.57,28.08
	c-1.84,0.79-3.71,1.6-5.56,2.42c-146.66,65.05-244.51,221.77-243.49,389.98c0.85,139.16,66.59,290.89,167.46,386.59
	c50.32,47.73,134.33,98.74,219.17,98.74c34.26,0,68.91-7.12,102.98-21.17C756.72,933.04,871.93,759.04,881.18,566.92z"/>
<linearGradient id="SVGID_1_" gradientUnits="userSpaceOnUse" x1="239.2082" y1="215.6936" x2="752.7162" y2="897.1418">
	<stop  offset="0" style="stop-color:#FFFA1E"/>
	<stop  offset="7.988989e-03" style="stop-color:#FFF91E"/>
	<stop  offset="0.449" style="stop-color:#FFCF15"/>
	<stop  offset="0.7946" style="stop-color:#FFB510"/>
	<stop  offset="1" style="stop-color:#FFAB0E"/>
</linearGradient>
<path class="st0" d="M879,491.47c2.67,24.67,3.4,50.05,2.18,75.45c-9.24,192.12-124.46,366.12-286.72,432.99
	c-34.07,14.05-68.72,21.17-102.98,21.17c-84.84,0-168.84-51.01-219.17-98.74c-100.87-95.69-166.61-247.43-167.46-386.59
	c-1.02-168.2,96.83-324.93,243.49-389.98c1.85-0.82,3.72-1.63,5.56-2.42c43.36-18.38,90.93-28.08,137.57-28.08
	C705.67,115.28,859.41,310.55,879,491.47z"/>
<g>
	<g id="XMLID_00000028299277153246130340000006283769142491159429_">
		<g>
			<path d="M1000,446.73v197.04c0,52.63-42.66,95.29-95.29,95.29H534.1v-65.83h7.1v-7.74h396.85V443.5H541.19v-6.02h-7.1v-59.79
				h396.85C969.08,377.69,1000,408.6,1000,446.73z"/>
			<path class="st6" d="M938.05,443.5v221.99H541.19V443.5H938.05z M721.23,551.91c0-29.45-21.38-53.35-47.75-53.35
				s-47.75,23.89-47.75,53.35c0,29.46,21.38,53.35,47.75,53.35S721.23,581.38,721.23,551.91z"/>
			<ellipse cx="673.48" cy="551.91" rx="47.75" ry="53.35"/>
			<rect x="534.1" y="665.49" width="7.1" height="7.74"/>
			<polygon points="541.19,443.5 541.19,665.49 534.1,665.49 534.1,673.23 465.9,673.23 465.9,665.49 456.87,665.49 456.87,443.5 
				465.9,443.5 465.9,437.48 534.1,437.48 534.1,443.5 			"/>
			<rect x="534.1" y="437.48" width="7.1" height="6.02"/>
			<path d="M465.9,673.23v65.83H95.29C42.66,739.06,0,696.39,0,643.77V446.73c0-38.13,30.91-69.04,69.05-69.04H465.9v59.79h-9.03
				v6.02H61.95v221.99h394.92v7.74H465.9z"/>
			<rect x="456.87" y="665.49" width="9.03" height="7.74"/>
			<rect x="456.87" y="437.48" width="9.03" height="6.02"/>
			<path class="st6" d="M456.87,443.5v221.99H61.95V443.5H456.87z M374.27,551.91c0-29.45-21.38-53.35-47.75-53.35
				s-47.75,23.89-47.75,53.35c0,29.46,21.38,53.35,47.75,53.35S374.27,581.38,374.27,551.91z"/>
			<path d="M544.25,905.26h-100.5c-24.12,0-43.66-19.56-43.66-43.66v-28.04h185.28v30.59C585.36,886.85,566.95,905.26,544.25,905.26
				z"/>
			<ellipse cx="326.52" cy="551.91" rx="47.75" ry="53.35"/>
		</g>
	</g>
</g>
</svg>
