<?xml version="1.0" encoding="utf-8"?>
<!-- Generator: Adobe Illustrator 26.0.1, SVG Export Plug-In . SVG Version: 6.00 Build 0)  -->
<svg version="1.1" id="Layer_1" xmlns="http://www.w3.org/2000/svg" xmlns:xlink="http://www.w3.org/1999/xlink" x="0px" y="0px"
	 viewBox="0 0 1000 1133" style="enable-background:new 0 0 1000 1133;" xml:space="preserve">
<style type="text/css">
	.st0{fill:url(#SVGID_1_);}
	.st1{fill:#FFFFFF;}
</style>
<linearGradient id="SVGID_1_" gradientUnits="userSpaceOnUse" x1="205.5641" y1="157.8308" x2="800.6844" y2="947.5821">
	<stop  offset="0" style="stop-color:#FFFA1E"/>
	<stop  offset="7.988989e-03" style="stop-color:#FFF91E"/>
	<stop  offset="0.449" style="stop-color:#FFCF15"/>
	<stop  offset="0.7946" style="stop-color:#FFB510"/>
	<stop  offset="1" style="stop-color:#FFAB0E"/>
</linearGradient>
<path class="st0" d="M952.01,478c3.13,28.46,3.99,57.74,2.55,87.05c-10.83,221.62-145.86,422.33-336.01,499.48
	c-39.93,16.2-80.54,24.41-120.69,24.41c-99.43,0-197.87-58.83-256.84-113.9C122.81,864.65,45.77,689.61,44.77,529.1
	c-1.2-194.05,113.47-374.82,285.35-449.86c2.17-0.95,4.36-1.89,6.52-2.79c50.81-21.21,106.56-32.4,161.22-32.4
	C748.89,44.06,929.05,269.29,952.01,478z"/>
<path d="M996.51,473.27c3.38,30.72,4.32,62.32,2.76,93.89c-2.74,56.07-13.14,112.14-30.91,166.67
	c-17.77,54.49-42.49,106.15-73.46,153.51c-65.62,100.36-155.28,175.71-259.29,217.93c-45.38,18.39-91.71,27.73-137.75,27.73
	c-112.59,0-222.41-65.09-287.65-125.99C83.59,888.77,1.08,701.28,0.01,529.36c-0.63-102.15,28.01-202.57,82.85-290.39
	C139.02,149.04,218.26,79.86,312,38.95c2.4-1.05,4.77-2.07,7.13-3.07C375.45,12.4,437.24,0,497.85,0
	c123.32,0,243.27,51.62,337.76,145.38c44.21,43.84,80.7,94.59,108.46,150.81C972.22,353.2,989.86,412.75,996.51,473.27z
	 M954.57,565.05c1.43-29.31,0.58-58.6-2.55-87.05C929.05,269.29,748.89,44.06,497.85,44.06c-54.66,0-110.41,11.18-161.22,32.4
	c-2.16,0.89-4.34,1.84-6.52,2.79C158.24,154.28,43.57,335.06,44.77,529.1c1,160.51,78.04,335.55,196.25,445.94
	c58.98,55.07,157.42,113.9,256.84,113.9c40.15,0,80.76-8.22,120.69-24.41C808.71,987.38,943.73,786.67,954.57,565.05z"/>
<path class="st1" d="M681.69,466.1c20.18,67.94-39.78,147.38-90.66,194.47H397.32c-5.44-5.36-11.1-11.33-16.77-17.91
	c-38.86-45-60.34-95.56-63.81-150.26c-2.79-43.89,10.45-80.87,39.33-109.92c41.94-42.18,108.52-59.5,152.59-57.72
	C574.57,327.41,655.18,376.8,681.69,466.1z"/>
<path d="M718.32,455.55c-14.54-49.01-43.92-91.28-84.97-122.23c-37.16-28.03-80.89-44.41-123.14-46.11
	c-27.19-1.09-59.96,4.06-89.91,14.13c-36.33,12.2-67.97,31.17-91.52,54.86c-36.24,36.45-53.59,84.37-50.14,138.55
	c3.96,62.55,29.48,122.49,73.75,173.34c16.35,18.76,32.42,33.08,44.72,42.9v153c0,16.68,13.52,30.2,30.2,30.2h27.27
	c6.79,25.48,24.57,43.66,45.42,43.66s38.63-18.18,45.42-43.66h36.11c12.79,0,23.17-10.37,23.17-23.17V699.08
	c24.65-21.07,53.01-50.33,76-84.13C719.39,558.06,732.4,502.95,718.32,455.55z M591.03,660.57h-62.41V478.53h-68.94v182.04h-62.36
	c-5.44-5.36-11.1-11.33-16.77-17.91c-38.86-45-60.34-95.56-63.81-150.26c-2.79-43.89,10.45-80.87,39.33-109.92
	c41.94-42.18,108.52-59.5,152.59-57.72c65.91,2.65,146.52,52.04,173.03,141.34C701.87,534.04,641.91,613.48,591.03,660.57z"/>
</svg>
