<?xml version="1.0" encoding="utf-8"?>
<!-- Generator: Adobe Illustrator 26.0.1, SVG Export Plug-In . SVG Version: 6.00 Build 0)  -->
<svg version="1.1" id="Layer_1" xmlns="http://www.w3.org/2000/svg" xmlns:xlink="http://www.w3.org/1999/xlink" x="0px" y="0px"
	 viewBox="0 0 1000 1133" style="enable-background:new 0 0 1000 1133;" xml:space="preserve">
<style type="text/css">
	.st0{fill:url(#SVGID_1_);}
	.st1{fill:url(#SVGID_00000145055693381965643870000000289933377033883018_);}
	.st2{fill:url(#SVGID_00000179639015706857097390000012288244423222730906_);}
	.st3{fill:url(#SVGID_00000085953469342294068580000010944031497760784293_);}
	.st4{fill:url(#SVGID_00000018203263732489007410000016785846790203298739_);}
	.st5{fill:#FFFFFF;}
	.st6{fill:#BEE64E;}
	.st7{fill:#B3F5A4;}
	.st8{fill:url(#SVGID_00000047754185273359514350000017255721644879301013_);}
	.st9{fill:url(#SVGID_00000183961051893090532270000002284183629302293431_);}
	.st10{fill:url(#SVGID_00000097475308119884561890000012807732387099867520_);}
	.st11{fill:url(#SVGID_00000142881415998301263580000009245491754484234379_);}
	.st12{fill:#FF0605;}
	.st13{fill:#FA3306;}
	.st14{fill:url(#SVGID_00000127733313147278489730000018102143482685438900_);}
	.st15{fill:#FF1400;}
	.st16{fill:#FF1602;}
	.st17{fill:url(#SVGID_00000014593389943083332700000000121332728864407720_);}
	.st18{fill:url(#SVGID_00000158713776433907476970000010693283417380247997_);}
	.st19{fill:url(#SVGID_00000052096391942936023350000014937132666644146875_);}
	.st20{fill:url(#SVGID_00000029016661406001749180000009280112235937240239_);}
	.st21{fill:url(#SVGID_00000172399955338921787750000008813801677629561489_);}
	.st22{fill:#FF1901;}
	.st23{fill:#FFFFFE;}
	.st24{fill:url(#SVGID_00000083798682726383358150000013486549277752510907_);}
	.st25{fill:url(#SVGID_00000052079439311572879080000001136023733678230709_);}
	.st26{fill:url(#SVGID_00000044858704596607102310000000004785020805757570_);}
	.st27{fill:url(#SVGID_00000023965638106177756850000016762986046317910968_);}
	.st28{fill:url(#SVGID_00000139991243917083513780000005711608860967858618_);}
	.st29{fill:url(#SVGID_00000114785444809319444230000016769238746470556060_);}
	.st30{fill:#7E400D;}
	.st31{fill:url(#SVGID_00000176734741638681817560000006462141128377692086_);}
	.st32{fill:url(#SVGID_00000114785206330700946100000011541891097529784742_);}
	.st33{fill:url(#SVGID_00000078741417899125883830000016152739339561276591_);}
	.st34{fill:#FF0E01;}
	.st35{fill:#4395C5;}
	.st36{fill:#010101;}
	.st37{fill:#231F20;}
</style>
<g>
	<path d="M996.51,473.26c3.38,30.74,4.32,62.33,2.76,93.91c-2.74,56.06-13.14,112.14-30.91,166.65
		c-17.77,54.5-42.49,106.15-73.46,153.53c-65.62,100.36-155.28,175.71-259.29,217.91c-45.38,18.4-91.71,27.74-137.75,27.74
		c-112.59,0-222.41-65.09-287.65-126C83.59,888.77,1.08,701.28,0.01,529.37C-0.62,427.21,28.02,326.8,82.87,238.98
		C139.02,149.04,218.26,79.87,312,38.95c2.4-1.05,4.77-2.06,7.13-3.06C375.45,12.4,437.24,0,497.85,0
		c123.32,0,243.27,51.62,337.76,145.37c44.21,43.85,80.7,94.59,108.46,150.82C972.22,353.19,989.86,412.76,996.51,473.26z
		 M954.57,565.04c1.43-29.3,0.58-58.58-2.55-87.04C929.05,269.3,748.89,44.06,497.85,44.06c-54.66,0-110.41,11.2-161.22,32.39
		c-2.16,0.91-4.34,1.84-6.52,2.79C158.24,154.28,43.57,335.07,44.77,529.1c1,160.52,78.04,335.56,196.25,445.95
		c58.98,55.06,157.42,113.9,256.84,113.9c40.15,0,80.76-8.22,120.69-24.43C808.71,987.38,943.73,786.66,954.57,565.04z"/>
	<linearGradient id="SVGID_1_" gradientUnits="userSpaceOnUse" x1="437.8571" y1="177.9586" x2="589.5167" y2="1041.9586">
		<stop  offset="0" style="stop-color:#F7CA4A"/>
		<stop  offset="1" style="stop-color:#EF8435"/>
	</linearGradient>
	<path class="st0" d="M952.01,478c3.13,28.46,3.99,57.74,2.55,87.04c-10.83,221.62-145.86,422.34-336.01,499.48
		c-39.93,16.21-80.54,24.43-120.69,24.43c-99.43,0-197.87-58.84-256.84-113.9C122.81,864.65,45.77,689.62,44.77,529.1
		c-1.2-194.03,113.47-374.82,285.35-449.86c2.17-0.95,4.36-1.88,6.52-2.79c50.81-21.2,106.56-32.39,161.22-32.39
		C748.89,44.06,929.05,269.3,952.01,478z"/>
	<path d="M575.59,850.12H422.64c-21.43,0-38.81-17.38-38.81-38.81v-22.96c0-21.43,17.38-38.81,38.81-38.81h152.95
		c21.43,0,38.81,17.38,38.81,38.81v22.96C614.4,832.74,597.02,850.12,575.59,850.12z"/>
	<path d="M620.11,545.08c0,0-17.14-83.37-17.14-112.15s17.14-50.62,39.32-28.78c22.18,21.84,117.97,99.25,110.91,122.08
		c-7.06,22.83-16.13,35.73-51.42,30.77S620.11,545.08,620.11,545.08z"/>
	<g>
		<path d="M776.41,418.05c-8.35,0-16.67-3.31-22.77-9.83l-85.37-91.31c-11.57-12.38-10.76-31.64,1.81-43.03
			c12.57-11.39,32.14-10.59,43.71,1.79l85.37,91.31c11.57,12.38,10.76,31.64-1.81,43.03C791.41,415.39,783.9,418.05,776.41,418.05z"
			/>
	</g>
	<path d="M375.12,545.08c0,0,17.14-83.37,17.14-112.15s-17.14-50.62-39.32-28.78c-22.18,21.84-117.97,99.25-110.91,122.08
		c7.06,22.83,16.13,35.73,51.42,30.77S375.12,545.08,375.12,545.08z"/>
	<g>
		<path d="M214.55,420.78c-7.49,0-15-2.66-20.94-8.04c-12.57-11.39-13.38-30.65-1.81-43.03l85.37-91.31
			c11.57-12.38,31.14-13.18,43.71-1.79c12.57,11.39,13.38,30.65,1.81,43.03l-85.37,91.31C231.22,417.47,222.9,420.78,214.55,420.78z
			"/>
	</g>
</g>
</svg>
