<?xml version="1.0" encoding="utf-8"?>
<!-- Generator: Adobe Illustrator 26.0.1, SVG Export Plug-In . SVG Version: 6.00 Build 0)  -->
<svg version="1.1" id="Layer_1" xmlns="http://www.w3.org/2000/svg" xmlns:xlink="http://www.w3.org/1999/xlink" x="0px" y="0px"
	 viewBox="0 0 1000 1133" style="enable-background:new 0 0 1000 1133;" xml:space="preserve">
<style type="text/css">
	.st0{fill:url(#SVGID_1_);}
	.st1{fill:url(#SVGID_00000067932411163106360090000018219793649299862424_);}
	.st2{fill:url(#SVGID_00000160185968042605131780000006751623177712706485_);}
	.st3{fill:url(#SVGID_00000148642582497596247930000007414789164339070859_);}
	.st4{fill:url(#SVGID_00000058565713800435222100000005445650280271208329_);}
	.st5{fill:#FFFFFF;}
	.st6{fill:#BEE64E;}
	.st7{fill:#B3F5A4;}
	.st8{fill:url(#SVGID_00000141434853471600324590000016796627491176767141_);}
	.st9{fill:url(#SVGID_00000026146897170837733850000003132491371157359493_);}
	.st10{fill:url(#SVGID_00000101814728442195608070000003267551047758845846_);}
	.st11{fill:url(#SVGID_00000116205230471190191350000017322408059227735974_);}
	.st12{fill:#FF0605;}
	.st13{fill:#FA3306;}
	.st14{fill:url(#SVGID_00000047041852602439984730000014354115859352498072_);}
	.st15{fill:#FF1400;}
	.st16{fill:#FF1602;}
	.st17{fill:url(#SVGID_00000110449109839654683450000015279981898976482737_);}
	.st18{fill:url(#SVGID_00000029727530581373184480000010774851500974041534_);}
	.st19{fill:url(#SVGID_00000160176468712328352690000008073149476538561467_);}
	.st20{fill:url(#SVGID_00000134229488367084449580000007009108846869031838_);}
	.st21{fill:url(#SVGID_00000012470699095776584740000007533611164994019519_);}
	.st22{fill:#FF1901;}
	.st23{fill:#FFFFFE;}
	.st24{fill:url(#SVGID_00000080198743182630034860000010343099100713723527_);}
	.st25{fill:url(#SVGID_00000031924688380488098920000000239423239522522247_);}
	.st26{fill:url(#SVGID_00000054961523588684832400000018100531071287482520_);}
	.st27{fill:url(#SVGID_00000060739206429657412600000001323717433086747045_);}
	.st28{fill:url(#SVGID_00000077288428285802045080000015041688163723058595_);}
	.st29{fill:url(#SVGID_00000124128550844641541900000007945133879010551204_);}
	.st30{fill:#7E400D;}
	.st31{fill:url(#SVGID_00000066515609140597517520000003641474997927925947_);}
	.st32{fill:url(#SVGID_00000110431395290476003790000003680445112063408777_);}
	.st33{fill:url(#SVGID_00000090992779590399753400000002649664571827494305_);}
	.st34{fill:#FF0E01;}
	.st35{fill:#4395C5;}
	.st36{fill:#010101;}
	.st37{fill:#231F20;}
</style>
<path d="M996.51,473.27c3.38,30.72,4.32,62.32,2.76,93.89c-2.74,56.07-13.14,112.14-30.91,166.67
	c-17.77,54.49-42.49,106.15-73.46,153.51c-65.62,100.36-155.28,175.71-259.29,217.93c-45.38,18.39-91.71,27.73-137.75,27.73
	c-112.59,0-222.41-65.09-287.65-125.99C83.59,888.77,1.08,701.28,0.01,529.36c-0.63-102.15,28.01-202.57,82.85-290.39
	C139.02,149.04,218.26,79.86,312,38.95c2.4-1.05,4.77-2.07,7.13-3.07C375.45,12.4,437.24,0,497.85,0
	c123.32,0,243.27,51.62,337.76,145.38c44.21,43.84,80.7,94.59,108.46,150.81C972.22,353.2,989.86,412.75,996.51,473.27z
	 M954.57,565.05c1.43-29.31,0.58-58.6-2.55-87.05C929.05,269.29,748.89,44.06,497.85,44.06c-54.66,0-110.41,11.18-161.22,32.4
	c-2.16,0.89-4.34,1.84-6.52,2.79C158.24,154.28,43.57,335.06,44.77,529.1c1,160.51,78.04,335.55,196.25,445.94
	c58.98,55.07,157.42,113.9,256.84,113.9c40.15,0,80.76-8.22,120.69-24.41C808.71,987.38,943.73,786.67,954.57,565.05z"/>
<linearGradient id="SVGID_1_" gradientUnits="userSpaceOnUse" x1="205.5641" y1="157.8308" x2="800.6844" y2="947.5821">
	<stop  offset="0" style="stop-color:#FFFA1E"/>
	<stop  offset="7.988989e-03" style="stop-color:#FFF91E"/>
	<stop  offset="0.449" style="stop-color:#FFCF15"/>
	<stop  offset="0.7946" style="stop-color:#FFB510"/>
	<stop  offset="1" style="stop-color:#FFAB0E"/>
</linearGradient>
<path class="st0" d="M952.01,478c3.13,28.46,3.99,57.74,2.55,87.05c-10.83,221.62-145.86,422.33-336.01,499.48
	c-39.93,16.2-80.54,24.41-120.69,24.41c-99.43,0-197.87-58.83-256.84-113.9C122.81,864.65,45.77,689.61,44.77,529.1
	c-1.2-194.05,113.47-374.82,285.35-449.86c2.17-0.95,4.36-1.89,6.52-2.79c50.81-21.21,106.56-32.4,161.22-32.4
	C748.89,44.06,929.05,269.29,952.01,478z"/>
<path d="M205.66,635.45c0,0-13.44,3.6-9.75,13.96c0,0,80.67,236.23,167.38,258.06c48.92,12.31,101,14.69,151.27,14.95
	c44.39,0.22,91.46,1.14,133.25-15.86c37.81-15.39,64.79-47.98,86.46-81c29.86-45.47,70.35-93.83,87.8-145.39
	c11.1-32.74,21.18-45.65-64.53-44.65C671.83,636.5,205.66,635.45,205.66,635.45z M770.65,562.06
	c93.77,5.96,115.95,55.59,91.75,121.09s-77.14,198.01-179.48,258.06c-48.29,28.34-225.87,64.52-348.88,1
	c-123.02-63.53-188.56-294.78-188.56-294.78c-6.04-91.32,86.73-85.37,86.73-85.37S676.87,556.11,770.65,562.06z"/>
<path class="st5" d="M195.9,649.41c-3.69-10.35,9.75-13.96,9.75-13.96s466.17,1.05,551.88,0.06c85.71-1,75.63,11.91,64.53,44.65
	c-17.46,51.56-57.95,99.92-87.8,145.39c-21.67,33.02-48.65,65.61-86.46,81c-41.78,17-88.86,16.08-133.25,15.86
	c-50.27-0.26-102.35-2.64-151.27-14.95C276.57,885.63,195.9,649.41,195.9,649.41z"/>
<g>
	<path d="M583.83,411.3c4.5-21.28,20.31-68.42,72.64-74.66c49.65-5.92,79.15,47.48,90.83,74.66h54.77
		c-1.8-5.66-11.82-35.45-32.16-64.23c-31.94-45.18-73.31-66.14-119.61-60.61c-45.22,5.39-80.32,30.16-101.52,71.62
		c-11.33,22.17-15.56,43.1-17.05,53.21H583.83z"/>
</g>
<g>
	<path d="M400.42,411.3c-4.5-21.28-20.31-68.42-72.64-74.66c-49.65-5.92-79.15,47.48-90.83,74.66h-54.77
		c1.8-5.66,11.82-35.45,32.16-64.23c31.94-45.18,73.31-66.14,119.61-60.61c45.22,5.39,80.32,30.16,101.52,71.62
		c11.33,22.17,15.56,43.1,17.05,53.21H400.42z"/>
</g>
</svg>
