<?xml version="1.0" encoding="utf-8"?>
<!-- Generator: Adobe Illustrator 26.0.1, SVG Export Plug-In . SVG Version: 6.00 Build 0)  -->
<svg version="1.1" id="Layer_1" xmlns="http://www.w3.org/2000/svg" xmlns:xlink="http://www.w3.org/1999/xlink" x="0px" y="0px"
	 viewBox="0 0 1000 1133" style="enable-background:new 0 0 1000 1133;" xml:space="preserve">
<style type="text/css">
	.st0{fill:url(#SVGID_1_);}
	.st1{fill:url(#SVGID_00000089573402023250408800000015500498980414317492_);}
	.st2{fill:url(#SVGID_00000111876530430472129090000012183123901055397013_);}
	.st3{fill:url(#SVGID_00000053506588268538404750000000289675507715892875_);}
	.st4{fill:url(#SVGID_00000021809298949334912000000006733815900396284081_);}
	.st5{fill:#FFFFFF;}
	.st6{fill:#BEE64E;}
	.st7{fill:#B3F5A4;}
	.st8{fill:url(#SVGID_00000122714656644700392450000013736725614430028416_);}
	.st9{fill:url(#SVGID_00000114782964598689166850000006590053573568110769_);}
	.st10{fill:url(#SVGID_00000183948797195723483060000015503681741821040808_);}
	.st11{fill:url(#SVGID_00000091008240244416964440000010878951628812687744_);}
	.st12{fill:#FF0605;}
	.st13{fill:#FA3306;}
	.st14{fill:url(#SVGID_00000080898739966545954770000005252772548398382997_);}
	.st15{fill:#FF1400;}
	.st16{fill:#FF1602;}
	.st17{fill:url(#SVGID_00000067944519529356390040000003736722769572538245_);}
	.st18{fill:url(#SVGID_00000129894420580186733080000017984117283108254611_);}
	.st19{fill:url(#SVGID_00000023967588551238018700000010024216772987104187_);}
	.st20{fill:url(#SVGID_00000021090894665764331250000012047629831742445502_);}
	.st21{fill:url(#SVGID_00000183210964098777537660000016606079228145865397_);}
	.st22{fill:#FF1901;}
	.st23{fill:#FFFFFE;}
	.st24{fill:url(#SVGID_00000073698558319722507950000010495525087825130414_);}
	.st25{fill:url(#SVGID_00000047057911994547840840000018051108966748331691_);}
	.st26{fill:url(#SVGID_00000021828574833063255800000006004415830985784235_);}
	.st27{fill:url(#SVGID_00000137813346510822499400000007583187758935468160_);}
	.st28{fill:url(#SVGID_00000043450834949821932210000014247779672277313672_);}
	.st29{fill:url(#SVGID_00000047051114426652023480000004595695911045643140_);}
	.st30{fill:#7E400D;}
	.st31{fill:url(#SVGID_00000049915358298356598020000015323079522634052261_);}
	.st32{fill:url(#SVGID_00000026855971788669490630000003726329968738807984_);}
	.st33{fill:url(#SVGID_00000165938086975601151310000006470270917815846284_);}
	.st34{fill:#FF0E01;}
	.st35{fill:#4395C5;}
	.st36{fill:#010101;}
	.st37{fill:#231F20;}
</style>
<g>
	<path d="M996.51,473.26c3.38,30.74,4.32,62.33,2.76,93.91c-2.74,56.06-13.14,112.14-30.91,166.66
		c-17.77,54.49-42.49,106.14-73.46,153.51c-65.62,100.36-155.28,175.71-259.29,217.91c-45.38,18.4-91.71,27.74-137.75,27.74
		c-112.59,0-222.41-65.09-287.65-126C83.59,888.77,1.08,701.28,0.01,529.37C-0.62,427.21,28.02,326.8,82.87,238.98
		C139.02,149.04,218.26,79.87,312,38.96c2.4-1.06,4.77-2.07,7.13-3.07C375.45,12.4,437.24,0,497.85,0
		c123.32,0,243.27,51.62,337.76,145.37c44.21,43.85,80.7,94.59,108.46,150.82C972.22,353.19,989.86,412.76,996.51,473.26z
		 M954.57,565.06c1.43-29.31,0.58-58.6-2.55-87.05C929.05,269.3,748.89,44.06,497.85,44.06c-54.66,0-110.41,11.2-161.22,32.39
		c-2.16,0.91-4.34,1.84-6.52,2.79C158.24,154.29,43.57,335.07,44.77,529.1c1,160.52,78.04,335.56,196.25,445.95
		c58.98,55.06,157.42,113.9,256.84,113.9c40.15,0,80.76-8.22,120.69-24.43C808.71,987.38,943.73,786.66,954.57,565.06z"/>
	<linearGradient id="SVGID_1_" gradientUnits="userSpaceOnUse" x1="205.5643" y1="157.8351" x2="800.6794" y2="947.5796">
		<stop  offset="0" style="stop-color:#FFFA1E"/>
		<stop  offset="7.988989e-03" style="stop-color:#FFF91E"/>
		<stop  offset="0.449" style="stop-color:#FFCF15"/>
		<stop  offset="0.7946" style="stop-color:#FFB510"/>
		<stop  offset="1" style="stop-color:#FFAB0E"/>
	</linearGradient>
	<path class="st0" d="M952.01,478c3.13,28.46,3.99,57.74,2.55,87.05c-10.83,221.61-145.86,422.32-336.01,499.46
		c-39.93,16.21-80.54,24.43-120.69,24.43c-99.43,0-197.87-58.84-256.84-113.9C122.81,864.65,45.77,689.62,44.77,529.1
		c-1.2-194.03,113.47-374.81,285.35-449.86c2.17-0.95,4.36-1.88,6.52-2.79c50.81-21.2,106.56-32.39,161.22-32.39
		C748.89,44.06,929.05,269.3,952.01,478z"/>
	<ellipse cx="494.62" cy="822.48" rx="55.96" ry="64.51"/>
	<g>
		<path d="M520.77,310.15c6.82,1.02,13.44,2.58,19.68,4.65c22.54,7.47,41.69,22.25,52.54,40.58
			c35.64,60.16-18.32,133.27-69.87,184.01c-41.55,40.9-61.46,92.34-59.36,153.08h60.6c-2.02-45.06,11.63-81.44,41.58-110.93
			C686.61,462.75,675.7,376.65,645.3,325.34c-18.4-31.05-48.78-54.86-85.54-67.04c-9.56-3.17-19.63-5.55-29.91-7.09
			c-76.19-11.36-139.04,30.26-192.02,70.47v77.01c11.58-9.9,23.61-19.64,36.09-29.13C419.16,335.16,467.76,302.23,520.77,310.15z"/>
	</g>
</g>
</svg>
