<?xml version="1.0" encoding="utf-8"?>
<!-- Generator: Adobe Illustrator 26.0.1, SVG Export Plug-In . SVG Version: 6.00 Build 0)  -->
<svg version="1.1" id="Layer_1" xmlns="http://www.w3.org/2000/svg" xmlns:xlink="http://www.w3.org/1999/xlink" x="0px" y="0px"
	 viewBox="0 0 1000 1133" style="enable-background:new 0 0 1000 1133;" xml:space="preserve">
<style type="text/css">
	.st0{fill:url(#SVGID_1_);}
	.st1{fill:url(#SVGID_00000140710000098341176730000011966752339438090415_);}
	.st2{fill:url(#SVGID_00000040542608219980807000000008465957031204130976_);}
	.st3{fill:url(#SVGID_00000013178348980877931510000004285192015461925543_);}
	.st4{fill:url(#SVGID_00000034083016837788073510000003830816102751533961_);}
	.st5{fill:#FFFFFF;}
	.st6{fill:#BEE64E;}
	.st7{fill:#B3F5A4;}
	.st8{fill:url(#SVGID_00000096770192949241589170000016443931496527184002_);}
	.st9{fill:url(#SVGID_00000075855228756037900470000000406367437661748641_);}
	.st10{fill:url(#SVGID_00000031172108337012359410000016304840647933424268_);}
	.st11{fill:url(#SVGID_00000126318426507145133020000016226272540309668782_);}
	.st12{fill:#FF0605;}
	.st13{fill:#FA3306;}
	.st14{fill:url(#SVGID_00000024688061608561196300000013417186805493786011_);}
	.st15{fill:#FF1400;}
	.st16{fill:#FF1602;}
	.st17{fill:url(#SVGID_00000173851565614470616090000004361316023549868219_);}
	.st18{fill:url(#SVGID_00000158020418834311695920000006326845376744499371_);}
	.st19{fill:url(#SVGID_00000046302621568499728750000010369563659945572541_);}
	.st20{fill:url(#SVGID_00000164490633045803477250000017233511136950183817_);}
	.st21{fill:url(#SVGID_00000000933280148677592800000009596603909122004609_);}
	.st22{fill:#FF1901;}
	.st23{fill:#FFFFFE;}
	.st24{fill:url(#SVGID_00000083785320209496446250000005196270031129730223_);}
	.st25{fill:url(#SVGID_00000030459376344842431830000002590036933050882743_);}
	.st26{fill:url(#SVGID_00000104690829793803551790000016967018136997661852_);}
	.st27{fill:url(#SVGID_00000021107790661911942400000016991109528070587836_);}
	.st28{fill:url(#SVGID_00000110432061657196492400000001504954810230376328_);}
	.st29{fill:url(#SVGID_00000122712890231233548610000002741641089907571901_);}
	.st30{fill:#7E400D;}
	.st31{fill:url(#SVGID_00000006708772505525004810000007486912305394751397_);}
	.st32{fill:url(#SVGID_00000063599022924659843420000002452465994226928268_);}
	.st33{fill:url(#SVGID_00000096018286408124291990000003401679834080844702_);}
	.st34{fill:#FF0E01;}
	.st35{fill:#4395C5;}
	.st36{fill:#010101;}
	.st37{fill:#231F20;}
</style>
<g>
	<path d="M996.51,473.27c3.38,30.72,4.32,62.32,2.76,93.89c-2.74,56.07-13.14,112.14-30.91,166.67
		c-17.77,54.49-42.49,106.15-73.46,153.51c-65.62,100.36-155.28,175.71-259.29,217.93c-45.38,18.39-91.71,27.73-137.75,27.73
		c-112.59,0-222.41-65.09-287.65-125.99C83.59,888.77,1.08,701.28,0.01,529.36c-0.63-102.15,28.01-202.57,82.85-290.39
		C139.02,149.04,218.26,79.86,312,38.95c2.4-1.05,4.77-2.07,7.13-3.07C375.45,12.4,437.24,0,497.85,0
		c123.32,0,243.27,51.62,337.76,145.38c44.21,43.84,80.7,94.59,108.46,150.81C972.22,353.2,989.86,412.75,996.51,473.27z
		 M954.57,565.05c1.43-29.31,0.58-58.6-2.55-87.05C929.05,269.29,748.89,44.06,497.85,44.06c-54.66,0-110.41,11.18-161.22,32.4
		c-2.16,0.89-4.34,1.84-6.52,2.79C158.24,154.28,43.57,335.06,44.77,529.1c1,160.51,78.04,335.55,196.25,445.94
		c58.98,55.07,157.42,113.9,256.84,113.9c40.15,0,80.76-8.22,120.69-24.41C808.71,987.38,943.73,786.67,954.57,565.05z"/>
	<linearGradient id="SVGID_1_" gradientUnits="userSpaceOnUse" x1="205.5641" y1="157.8308" x2="800.6844" y2="947.5821">
		<stop  offset="0" style="stop-color:#FFFA1E"/>
		<stop  offset="7.988989e-03" style="stop-color:#FFF91E"/>
		<stop  offset="0.449" style="stop-color:#FFCF15"/>
		<stop  offset="0.7946" style="stop-color:#FFB510"/>
		<stop  offset="1" style="stop-color:#FFAB0E"/>
	</linearGradient>
	<path class="st0" d="M952.01,478c3.13,28.46,3.99,57.74,2.55,87.05c-10.83,221.62-145.86,422.33-336.01,499.48
		c-39.93,16.2-80.54,24.41-120.69,24.41c-99.43,0-197.87-58.83-256.84-113.9C122.81,864.65,45.77,689.61,44.77,529.1
		c-1.2-194.05,113.47-374.82,285.35-449.86c2.17-0.95,4.36-1.89,6.52-2.79c50.81-21.21,106.56-32.4,161.22-32.4
		C748.89,44.06,929.05,269.29,952.01,478z"/>
	<g id="XMLID_00000136378120687835532290000000887584992305284992_">
		<g>
			<rect x="391.16" y="711.77" width="222.33" height="265.01"/>
			<rect x="400.23" y="628.89" class="st5" width="197.63" height="58.56"/>
			<rect x="411.33" y="553.46" class="st30" width="176.45" height="60.54"/>
		</g>
	</g>
	<g id="XMLID_00000000934871656221630420000010644123680160090021_">
		<g>
			<path d="M860.49,353.26v106.09h-50.02V353.26c0-48.97-40.47-88.8-90.21-88.8h-42.47c-49.75,0-90.21,39.83-90.21,88.8v106.09
				h-50.02V353.26c0-76.12,62.91-138.04,140.24-138.04h42.47C797.58,215.21,860.49,277.14,860.49,353.26z"/>
			<path class="st5" d="M810.46,353.26v106.09h-84.28V352.48h-54.12v106.87h-84.5V353.26c0-48.97,40.47-88.8,90.21-88.8h42.47
				C770,264.46,810.46,304.29,810.46,353.26z"/>
			<rect x="672.07" y="352.48" width="54.12" height="106.87"/>
			<path d="M462.21,361.2v106.09h-50.02V361.2c0-48.97-40.48-88.8-90.23-88.8H279.5c-49.75,0-90.21,39.83-90.21,88.8v106.09h-50.02
				V361.2c0-76.12,62.91-138.04,140.24-138.04h42.45C399.3,223.16,462.21,285.08,462.21,361.2z"/>
			<path class="st5" d="M412.18,361.2v106.09h-84.29V360.42h-54.1v106.87h-84.5V361.2c0-48.97,40.47-88.8,90.21-88.8h42.45
				C371.7,272.4,412.18,312.23,412.18,361.2z"/>
			<rect x="273.79" y="360.42" width="54.1" height="106.87"/>
		</g>
	</g>
</g>
</svg>
