<?xml version="1.0" encoding="utf-8"?>
<!-- Generator: Adobe Illustrator 26.0.1, SVG Export Plug-In . SVG Version: 6.00 Build 0)  -->
<svg version="1.1" id="Layer_1" xmlns="http://www.w3.org/2000/svg" xmlns:xlink="http://www.w3.org/1999/xlink" x="0px" y="0px"
	 viewBox="0 0 1000 1133" style="enable-background:new 0 0 1000 1133;" xml:space="preserve">
<style type="text/css">
	.st0{fill:url(#SVGID_1_);}
	.st1{fill:url(#SVGID_00000093174587907574152120000018031567856567441327_);}
	.st2{fill:url(#SVGID_00000064341442651518774880000011139898995906329272_);}
	.st3{fill:url(#SVGID_00000147921700290168520600000006679873135793729418_);}
	.st4{fill:url(#SVGID_00000080176910425250727140000008374864435457217214_);}
	.st5{fill:#FFFFFF;}
	.st6{fill:#BEE64E;}
	.st7{fill:#B3F5A4;}
	.st8{fill:url(#SVGID_00000022529832762775223780000003439087160806474152_);}
	.st9{fill:url(#SVGID_00000179640024669875067050000001544424396496666775_);}
	.st10{fill:url(#SVGID_00000173156956335806861630000009264017637366077835_);}
	.st11{fill:url(#SVGID_00000022544043355736568120000013521003375519495836_);}
	.st12{fill:#FF0605;}
	.st13{fill:#FA3306;}
	.st14{fill:url(#SVGID_00000021086758766237462310000008470175693024994465_);}
	.st15{fill:#FF1400;}
	.st16{fill:#FF1602;}
	.st17{fill:url(#SVGID_00000006702940822455123230000005493086036669951635_);}
	.st18{fill:url(#SVGID_00000182501175698722730460000003281806304718086789_);}
	.st19{fill:url(#SVGID_00000155120047978194235130000010379495593738055839_);}
	.st20{fill:url(#SVGID_00000047771462730896101200000003512208263153661572_);}
	.st21{fill:url(#SVGID_00000081611013201413266030000010574103144058057644_);}
	.st22{fill:#FF1901;}
	.st23{fill:#FFFFFE;}
	.st24{fill:url(#SVGID_00000122698731933402000450000018219484104921925506_);}
	.st25{fill:url(#SVGID_00000018943723696765381410000004781617934735217571_);}
	.st26{fill:url(#SVGID_00000157989468927271863850000015670575939199498423_);}
	.st27{fill:url(#SVGID_00000124138153884091056740000011389722612689865387_);}
	.st28{fill:url(#SVGID_00000085238029292477824640000006815117468602851500_);}
	.st29{fill:url(#SVGID_00000150083798568180375090000003616030663541886084_);}
	.st30{fill:#7E400D;}
	.st31{fill:url(#SVGID_00000076573802570849147610000003035046748919446669_);}
	.st32{fill:url(#SVGID_00000155846697314812356430000011577851118510679202_);}
	.st33{fill:url(#SVGID_00000002347340953501679180000003056710411582658996_);}
	.st34{fill:#FF0E01;}
	.st35{fill:#4395C5;}
	.st36{fill:#010101;}
	.st37{fill:#231F20;}
</style>
<g>
	<path d="M996.51,473.26c3.38,30.74,4.32,62.33,2.76,93.91c-2.74,56.06-13.14,112.14-30.91,166.65
		c-17.77,54.5-42.49,106.15-73.46,153.53c-65.62,100.36-155.28,175.71-259.29,217.91c-45.38,18.4-91.71,27.74-137.75,27.74
		c-112.59,0-222.41-65.09-287.65-126C83.59,888.77,1.08,701.28,0.01,529.37C-0.62,427.21,28.02,326.8,82.87,238.98
		C139.02,149.04,218.26,79.87,312,38.95c2.4-1.05,4.77-2.06,7.13-3.06C375.45,12.4,437.24,0,497.85,0
		c123.32,0,243.27,51.62,337.76,145.37c44.21,43.85,80.7,94.59,108.46,150.82C972.22,353.19,989.86,412.76,996.51,473.26z
		 M954.57,565.04c1.43-29.3,0.58-58.58-2.55-87.04C929.05,269.3,748.89,44.06,497.85,44.06c-54.66,0-110.41,11.2-161.22,32.39
		c-2.16,0.91-4.34,1.84-6.52,2.79C158.24,154.28,43.57,335.07,44.77,529.1c1,160.52,78.04,335.56,196.25,445.95
		c58.98,55.06,157.42,113.9,256.84,113.9c40.15,0,80.76-8.22,120.69-24.43C808.71,987.38,943.73,786.66,954.57,565.04z"/>
	<linearGradient id="SVGID_1_" gradientUnits="userSpaceOnUse" x1="205.562" y1="157.832" x2="800.6794" y2="947.5795">
		<stop  offset="0" style="stop-color:#FFFA1E"/>
		<stop  offset="7.988989e-03" style="stop-color:#FFF91E"/>
		<stop  offset="0.449" style="stop-color:#FFCF15"/>
		<stop  offset="0.7946" style="stop-color:#FFB510"/>
		<stop  offset="1" style="stop-color:#FFAB0E"/>
	</linearGradient>
	<path class="st0" d="M952.01,478c3.13,28.46,3.99,57.74,2.55,87.04c-10.83,221.62-145.86,422.34-336.01,499.48
		c-39.93,16.21-80.54,24.43-120.69,24.43c-99.43,0-197.87-58.84-256.84-113.9C122.81,864.65,45.77,689.62,44.77,529.1
		c-1.2-194.03,113.47-374.82,285.35-449.86c2.17-0.95,4.36-1.88,6.52-2.79c50.81-21.2,106.56-32.39,161.22-32.39
		C748.89,44.06,929.05,269.3,952.01,478z"/>
	<path d="M643.85,478.62c-24.12,20.31-43.08,49.7-30.13,76.8c14.79,30.96,41,40.17,77.3,9.76c36.3-30.41,58.48-123.71,50.42-125.03
		c-17.51-2.87-43.54,10.2-59.49,15.76C670.36,459.94,656.4,468.05,643.85,478.62z"/>
	<g>
		<path d="M633.87,411.04c-7.64,0-15.3-2.71-21.37-8.2c-12.85-11.62-13.7-31.29-1.89-43.94l98.82-105.87
			c11.8-12.65,31.79-13.48,44.64-1.86c12.85,11.62,13.7,31.29,1.89,43.94l-98.82,105.87C650.92,407.65,642.41,411.04,633.87,411.04z
			"/>
	</g>
	<path d="M395.43,489.4c24.12,20.31,43.08,49.7,30.13,76.8c-14.79,30.96-41,40.17-77.3,9.76c-36.3-30.41-58.48-123.71-50.42-125.03
		c17.51-2.87,43.54,10.2,59.49,15.76C368.93,470.72,382.88,478.83,395.43,489.4z"/>
	<g>
		<path d="M395.02,421.82c-8.54,0-17.04-3.38-23.27-10.06l-98.81-105.87c-11.81-12.65-10.96-32.32,1.89-43.94
			c12.85-11.62,32.83-10.79,44.64,1.86l98.81,105.87c11.81,12.65,10.96,32.32-1.89,43.94C410.32,419.11,402.66,421.82,395.02,421.82
			z"/>
	</g>
	<path class="st5" d="M314.58,775.62c0,0,10.08-69.48,40.33-74.44c30.25-4.96,287.45-18.56,304.51-4.96
		c17.06,13.6,43.36,61.54,39.32,79.4c-4.03,17.87-8.74,40.69-8.74,40.69l-224.18,10.92l-94.78-8.93L314.58,775.62z"/>
	<g>
		<path d="M550.76,863.84c-11.26,0-22.79-0.02-34.37-0.05c-167.7-0.51-182.79-4.61-190.05-6.58c-21.29-5.78-39.9-24.41-56.88-56.96
			c-10.44-20-16.85-38.82-17.12-39.61c-5.52-16.29,3.43-33.91,19.98-39.34c16.55-5.43,34.43,3.37,39.96,19.65
			c8.28,24.25,23.3,51.11,31.43,56.37c24.25,4.03,180.05,5.11,322.89,3.86c11.9-8.58,30.68-25.39,35.47-44.08
			c4.26-16.65,21.43-26.75,38.36-22.56c16.92,4.2,27.18,21.1,22.92,37.76c-13.25,51.76-65.07,83.23-70.93,86.65l-7.3,4.26
			l-8.49,0.08C675.94,863.3,618.23,863.84,550.76,863.84z M344.28,797.66C344.28,797.66,344.28,797.66,344.28,797.66
			C344.28,797.66,344.28,797.66,344.28,797.66z"/>
	</g>
	<g>
		<path d="M658.42,715.41H362.98c-17.45,0-31.59-13.92-31.59-31.1s14.14-31.1,31.59-31.1h295.44c17.45,0,31.59,13.92,31.59,31.1
			S675.87,715.41,658.42,715.41z"/>
	</g>
</g>
</svg>
