<?xml version="1.0" encoding="utf-8"?>
<!-- Generator: Adobe Illustrator 26.0.1, SVG Export Plug-In . SVG Version: 6.00 Build 0)  -->
<svg version="1.1" id="Layer_1" xmlns="http://www.w3.org/2000/svg" xmlns:xlink="http://www.w3.org/1999/xlink" x="0px" y="0px"
	 viewBox="0 0 1000 1133" style="enable-background:new 0 0 1000 1133;" xml:space="preserve">
<style type="text/css">
	.st0{fill:url(#SVGID_1_);}
	.st1{fill:url(#SVGID_00000013912528338478989660000007912369555092038826_);}
	.st2{fill:url(#SVGID_00000131358269369193540210000012488402080345104024_);}
	.st3{fill:url(#SVGID_00000158023991313453624790000005839761706256673931_);}
	.st4{fill:url(#SVGID_00000042695893659928074000000006993201420379593390_);}
	.st5{fill:#FFFFFF;}
	.st6{fill:#BEE64E;}
	.st7{fill:#B3F5A4;}
	.st8{fill:url(#SVGID_00000122687135989621024460000009168032936495481508_);}
	.st9{fill:url(#SVGID_00000173861824165899571790000002509786814714088102_);}
	.st10{fill:url(#SVGID_00000037665949926222209950000004556457008127235238_);}
	.st11{fill:url(#SVGID_00000104699955639878222340000000523194818219013280_);}
	.st12{fill:#FF0605;}
	.st13{fill:#FA3306;}
	.st14{fill:url(#SVGID_00000073684569369662180570000017490938928493047467_);}
	.st15{fill:#FF1400;}
	.st16{fill:#FF1602;}
	.st17{fill:url(#SVGID_00000071552602789863486230000007239955811049607578_);}
	.st18{fill:url(#SVGID_00000056396787668057175110000010619046160850140576_);}
	.st19{fill:url(#SVGID_00000074435304439629207980000005223366877439395006_);}
	.st20{fill:url(#SVGID_00000104707543411209429210000007256013347507580580_);}
	.st21{fill:url(#SVGID_00000147201612715858446120000014828347762998415515_);}
	.st22{fill:#FF1901;}
	.st23{fill:#FFFFFE;}
	.st24{fill:url(#SVGID_00000152948541372541511410000002924545759206668961_);}
	.st25{fill:url(#SVGID_00000003788195060286374230000001744310617008274853_);}
	.st26{fill:url(#SVGID_00000013892683442279203870000005377028173262732946_);}
	.st27{fill:url(#SVGID_00000138554252561276927400000010866228619029177265_);}
	.st28{fill:url(#SVGID_00000160175443726587940300000010708781294963670926_);}
	.st29{fill:url(#SVGID_00000154412034629419421090000008787486617779191192_);}
	.st30{fill:#7E400D;}
	.st31{fill:url(#SVGID_00000167355049775793055720000004782375088371567526_);}
	.st32{fill:url(#SVGID_00000130630062576738969410000012696495808361164732_);}
	.st33{fill:url(#SVGID_00000077310373166191447760000006310749618641462663_);}
	.st34{fill:#FF0E01;}
	.st35{fill:#4395C5;}
	.st36{fill:#010101;}
	.st37{fill:#231F20;}
</style>
<g>
	<linearGradient id="SVGID_1_" gradientUnits="userSpaceOnUse" x1="198.9396" y1="163.8518" x2="806.3287" y2="941.2744">
		<stop  offset="0" style="stop-color:#FFFA1E"/>
		<stop  offset="7.988989e-03" style="stop-color:#FFF91E"/>
		<stop  offset="0.449" style="stop-color:#FFCF15"/>
		<stop  offset="0.7946" style="stop-color:#FFB510"/>
		<stop  offset="1" style="stop-color:#FFAB0E"/>
	</linearGradient>
	<path class="st0" d="M952.01,478c3.13,28.46,3.99,57.74,2.55,87.04c-10.83,221.62-145.86,422.34-336.01,499.48
		c-39.93,16.21-80.54,24.43-120.69,24.43c-99.43,0-197.87-58.84-256.84-113.9C122.81,864.65,45.77,689.62,44.77,529.1
		c-1.2-194.03,113.47-374.82,285.35-449.86c2.17-0.95,4.36-1.88,6.52-2.79c50.81-21.2,106.56-32.39,161.22-32.39
		C748.89,44.06,929.05,269.3,952.01,478z"/>
	<path d="M996.51,473.26c3.38,30.74,4.32,62.33,2.76,93.91c-2.74,56.06-13.14,112.14-30.91,166.65
		c-17.77,54.5-42.49,106.15-73.46,153.53c-65.62,100.36-155.28,175.71-259.29,217.91c-45.38,18.4-91.71,27.74-137.75,27.74
		c-112.59,0-222.41-65.09-287.65-126C83.59,888.77,1.08,701.28,0.01,529.37C-0.62,427.21,28.02,326.8,82.87,238.98
		C139.02,149.04,218.26,79.87,312,38.95c2.4-1.05,4.77-2.06,7.13-3.06C375.45,12.4,437.24,0,497.85,0
		c123.32,0,243.27,51.62,337.76,145.37c44.21,43.85,80.7,94.59,108.46,150.82C972.22,353.19,989.86,412.76,996.51,473.26z
		 M954.57,565.04c1.43-29.3,0.58-58.58-2.55-87.04C929.05,269.3,748.89,44.06,497.85,44.06c-54.66,0-110.41,11.2-161.22,32.39
		c-2.16,0.91-4.34,1.84-6.52,2.79C158.24,154.28,43.57,335.07,44.77,529.1c1,160.52,78.04,335.56,196.25,445.95
		c58.98,55.06,157.42,113.9,256.84,113.9c40.15,0,80.76-8.22,120.69-24.43C808.71,987.38,943.73,786.66,954.57,565.04z"/>
	<polygon points="477.81,666.8 505.38,666.8 559.49,287.32 427.4,287.32 	"/>
</g>
<circle cx="498.36" cy="805.34" r="65.36"/>
</svg>
